<?xml version="1.0" encoding="UTF-8"?>
<svg version="1.1" xmlns="http://www.w3.org/2000/svg" width="324" height="325">
<path d="M0 0 C106.92 0 213.84 0 324 0 C324 107.25 324 214.5 324 325 C217.08 325 110.16 325 0 325 C0 217.75 0 110.5 0 0 Z " fill="#CAC3BA" transform="translate(0,0)"/>
<path d="M0 0 C2.54790426 2.62752627 3 3.30715574 3 7 C3.66644531 6.855625 4.33289063 6.71125 5.01953125 6.5625 C11.61813564 5.2335503 18.26387622 4.19214036 25 5 C28.41123664 8.41123664 27.3381648 13.24550749 27.37109375 17.85351562 C27.37093262 18.56548096 27.37077148 19.27744629 27.37060547 20.01098633 C27.37494941 22.16244408 27.41117259 24.31180015 27.44921875 26.46289062 C27.56176046 39.46506398 27.56176046 39.46506398 23 45 C21.06616335 46.93108189 19.23818496 48.61670268 17.125 50.3125 C16.56345215 50.77543457 16.0019043 51.23836914 15.42333984 51.71533203 C9.70655777 56.36426534 3.7401049 60.68803704 -2.35449219 64.82714844 C-4.03691559 65.99195119 -4.03691559 65.99195119 -5.65332031 67.39941406 C-9.53538155 70.57605187 -12.60090684 71.87715844 -17.67041016 71.56494141 C-22.24692674 70.45510496 -25.57803342 67.59427175 -29.1875 64.6875 C-30.00686035 64.05392578 -30.8262207 63.42035156 -31.67041016 62.76757812 C-33.33391502 61.47723524 -34.99027645 60.17762741 -36.63916016 58.86865234 C-38.79573193 57.1616823 -40.97371016 55.49009283 -43.16796875 53.83203125 C-44.4044118 52.8890243 -45.64013809 51.9450765 -46.875 51 C-47.42696045 50.58065186 -47.9789209 50.16130371 -48.54760742 49.72924805 C-53.03055141 46.21834076 -57.16617177 42.50148469 -59 37 C-59.22621311 32.85138864 -59.22821893 28.7026803 -59.24023438 24.54833984 C-59.24996626 22.50707648 -59.28101631 20.46680957 -59.3125 18.42578125 C-59.31765625 17.14058594 -59.3228125 15.85539062 -59.328125 14.53125 C-59.3374707 13.35111328 -59.34681641 12.17097656 -59.35644531 10.95507812 C-59 8 -59 8 -57.70556641 6.09863281 C-54.75960855 4.20100751 -51.46912609 4.93065102 -48.125 5.25 C-47.41730469 5.30285156 -46.70960938 5.35570313 -45.98046875 5.41015625 C-42.2592788 5.70812863 -38.64037413 6.17199334 -35 7 C-34.95875 6.278125 -34.9175 5.55625 -34.875 4.8125 C-33.63006205 0.81091374 -31.36839283 -0.62231094 -28 -3 C-19.43620157 -6.10169465 -7.32581249 -5.17116176 0 0 Z " fill="#83673E" transform="translate(180,84)"/>
<path d="M0 0 C0.33 0 0.66 0 1 0 C1.1455841 4.54132797 1.23417333 9.08205341 1.3125 13.625 C1.35439453 14.91019531 1.39628906 16.19539063 1.43945312 17.51953125 C1.57768839 28.19129397 1.57768839 28.19129397 -0.93359375 31.5625 C-4.86601445 34.68839875 -8.92368926 37.06546473 -13.375 39.375 C-14.25824951 39.84397705 -15.14149902 40.3129541 -16.05151367 40.79614258 C-17.84467879 41.74788574 -19.6401593 42.69528002 -21.43798828 43.63818359 C-23.78289587 44.88460007 -26.09605014 46.17214644 -28.40234375 47.48828125 C-29.06766113 47.86227051 -29.73297852 48.23625977 -30.41845703 48.62158203 C-32.19477146 49.62124545 -33.9666896 50.62870936 -35.73828125 51.63671875 C-40.12605605 53.47065097 -43.49025525 53.95751857 -48.02661133 52.22680664 C-50.32066054 51.12795002 -52.53206433 49.93279075 -54.75 48.6875 C-55.56331787 48.24398193 -56.37663574 47.80046387 -57.21459961 47.34350586 C-59.81997681 45.91333283 -62.41066102 44.45898464 -65 43 C-65.89154785 42.50338867 -66.7830957 42.00677734 -67.70166016 41.49511719 C-70.32858736 40.02899172 -72.9473515 38.54952062 -75.5625 37.0625 C-76.37750977 36.60254639 -77.19251953 36.14259277 -78.03222656 35.66870117 C-79.16289551 35.01478394 -79.16289551 35.01478394 -80.31640625 34.34765625 C-80.98099854 33.96617432 -81.64559082 33.58469238 -82.33032227 33.19165039 C-84 32 -84 32 -86 29 C-86.22705078 26.1809082 -86.22705078 26.1809082 -86.1953125 22.80078125 C-86.18886719 21.59228516 -86.18242188 20.38378906 -86.17578125 19.13867188 C-86.15064453 17.2447168 -86.15064453 17.2447168 -86.125 15.3125 C-86.11597656 14.03826172 -86.10695313 12.76402344 -86.09765625 11.45117188 C-86.07405641 8.30059373 -86.04113194 5.15039017 -86 2 C-85.03707031 2.84691406 -84.07414062 3.69382813 -83.08203125 4.56640625 C-78.78043775 8.25178756 -74.25904014 11.59711001 -69.6875 14.9375 C-68.43380615 15.86598755 -68.43380615 15.86598755 -67.15478516 16.81323242 C-61.97100561 20.63751189 -61.97100561 20.63751189 -56.57421875 24.1484375 C-50.32677376 27.99997378 -50.32677376 27.99997378 -49.22265625 31.37890625 C-48.96581231 33.62717033 -48.95641857 35.74345053 -49 38 C-47.94399622 39.27870382 -47.94399622 39.27870382 -45.53125 39.1328125 C-44.5309375 39.13023437 -43.530625 39.12765625 -42.5 39.125 C-40.99953125 39.12886719 -40.99953125 39.12886719 -39.46875 39.1328125 C-37.05600378 39.27870382 -37.05600378 39.27870382 -36 38 C-35.98013006 36.61333558 -35.96538294 35.22659635 -35.953125 33.83984375 C-35.65153755 30.92929463 -35.37506971 29.4328361 -33.44335938 27.20361328 C-31.28076981 25.51898735 -29.06650889 24.02825149 -26.75 22.5625 C-25.10576714 21.44939784 -23.4625454 20.33480072 -21.8203125 19.21875 C-21.0046582 18.67734375 -20.18900391 18.1359375 -19.34863281 17.578125 C-16.0247959 15.34472772 -12.81250499 12.98506014 -9.625 10.5625 C-8.62726563 9.82128906 -7.62953125 9.08007812 -6.6015625 8.31640625 C-3.7053493 5.73764585 -2.05550981 3.26159661 0 0 Z " fill="#0E2835" transform="translate(207,125)"/>
<path d="M0 0 C6.77647059 2.44705882 6.77647059 2.44705882 9 5 C9.77263393 12.73398914 7.79251487 17.88559333 4.375 24.75 C3.94832031 25.66910156 3.52164063 26.58820313 3.08203125 27.53515625 C-0.2682569 34.44575061 -3.4896301 38.04229371 -10.25 41.8125 C-16.37350582 43.75161018 -22.20059098 44.1105708 -28.1875 41.5 C-36.29263712 36.81013235 -41.1689296 28.75862404 -44 20 C-43.67 19.34 -43.34 18.68 -43 18 C-42.29391602 18.35827881 -41.58783203 18.71655762 -40.86035156 19.08569336 C-37.65900592 20.70715756 -34.45455545 22.32238939 -31.25 23.9375 C-30.13882813 24.50146484 -29.02765625 25.06542969 -27.8828125 25.64648438 C-26.81289062 26.18466797 -25.74296875 26.72285156 -24.640625 27.27734375 C-23.65610352 27.77484131 -22.67158203 28.27233887 -21.65722656 28.78491211 C-19.40873384 29.81309552 -17.41311536 30.51687628 -15 31 C-15.7206665 30.5968457 -16.44133301 30.19369141 -17.18383789 29.77832031 C-19.88824353 28.26522633 -22.59248914 26.75184684 -25.29663086 25.23828125 C-27.03031499 24.26801257 -28.76417924 23.29806573 -30.49804688 22.328125 C-39.9397458 17.04297575 -39.9397458 17.04297575 -44.125 14.625 C-46.70555136 13.16642749 -49.21801347 12.01163147 -52 11 C-50.55922954 7.63820226 -48.75249979 5.40843732 -46 3 C-45.34 3 -44.68 3 -44 3 C-43.0625 4.50390625 -43.0625 4.50390625 -42 6.5625 C-36.30798169 15.94713193 -25.70634942 19.72788036 -15.875 23.4375 C-14.72773438 23.88287109 -13.58046875 24.32824219 -12.3984375 24.78710938 C-9.60336424 25.87020026 -6.80419907 26.94081395 -4 28 C-5.91104638 26.08895362 -8.59560958 25.17661659 -11 24 C-11 22 -11 22 -9.5 20.375 C-9.005 19.92125 -8.51 19.4675 -8 19 C-8.56976563 19.32226562 -9.13953125 19.64453125 -9.7265625 19.9765625 C-13.4514059 21.65338204 -16.99464094 21.5582382 -21 21 C-25.83452188 18.58273906 -28.99814121 15.41449822 -32 11 C-32.3125 7.625 -32.3125 7.625 -32 5 C-31.29875 5.721875 -30.5975 6.44375 -29.875 7.1875 C-29.40835938 7.63867188 -28.94171875 8.08984375 -28.4609375 8.5546875 C-27.08290313 9.91798353 -25.78783032 11.36369089 -24.5 12.8125 C-20.56176391 16.05334012 -15.94921818 15.62033653 -11.07421875 15.42578125 C-6.14207338 14.74267598 -3.66655763 13.19682597 -0.625 9.1875 C0.25805234 6.09681682 0.12279902 3.1927746 0 0 Z " fill="#741015" transform="translate(184,100)"/>
<path d="M0 0 C1.01964844 -0.02578125 2.03929687 -0.0515625 3.08984375 -0.078125 C6.50939071 0.29932828 8.34309288 1.16787791 11.0625 3.25 C11.5575 4.735 11.5575 4.735 12.0625 6.25 C13.79886826 7.12527214 13.79886826 7.12527214 15.875 7.6875 C19.56263239 8.94286422 21.37737478 10.3916409 24.0625 13.25 C25.25293763 13.96804174 26.46320493 14.65384434 27.6875 15.3125 C31.0625 17.25 31.0625 17.25 33.0625 20.25 C33.87439947 26.77867615 31.6030418 31.67461699 29 37.5 C28.59386475 38.4271582 28.18772949 39.35431641 27.76928711 40.30957031 C19.93707639 57.8127118 19.93707639 57.8127118 15.0625 60.25 C15.0625 59.26 15.0625 58.27 15.0625 57.25 C14.18851563 57.79140625 14.18851563 57.79140625 13.296875 58.34375 C6.55911739 62.15757506 0.77481612 63.57970968 -6.9375 62.25 C-10.01970073 61.00183607 -12.40400494 59.38689653 -14.9375 57.25 C-15.824375 56.5075 -16.71125 55.765 -17.625 55 C-21.67395595 50.18502536 -24.45818029 44.89769869 -26.4375 38.9375 C-28.07112801 34.92149782 -29.24924549 33.44538959 -32.9375 31.25 C-35.62257329 30.46053391 -35.62257329 30.46053391 -37.9375 30.25 C-35.24475825 22.71562899 -29.76909472 16.62120566 -23.9375 11.25 C-23.133125 10.5075 -22.32875 9.765 -21.5 9 C-18.59068773 7.01315259 -16.4139557 6.57339123 -12.9375 6.25 C-13.741875 6.86875 -14.54625 7.4875 -15.375 8.125 C-17.92920072 10.24311767 -18.78302736 10.98383079 -19.17578125 14.203125 C-19.3609224 19.93275646 -18.58355083 22.80637555 -14.9375 27.25 C-14.6075 24.61 -14.2775 21.97 -13.9375 19.25 C-13.2775 19.58 -12.6175 19.91 -11.9375 20.25 C-11.669375 21.301875 -11.40125 22.35375 -11.125 23.4375 C-9.62155093 28.26436282 -7.50682742 31.69780838 -3.04296875 34.39453125 C1.22412166 36.12828413 5.9502007 36.13654898 10.203125 34.3515625 C11.87029586 33.39598896 13.47409981 32.33146396 15.0625 31.25 C14.01375002 33.87187494 13.41318687 35.04371361 10.9375 36.5 C10.31875 36.7475 9.7 36.995 9.0625 37.25 C9.0625 37.91 9.0625 38.57 9.0625 39.25 C10.01125 39.559375 10.96 39.86875 11.9375 40.1875 C15.0625 41.25 15.0625 41.25 17.0625 42.25 C16.5675 43.24 16.5675 43.24 16.0625 44.25 C12.09534026 42.75154709 8.1407753 41.22217035 4.1875 39.6875 C3.07890625 39.26919922 1.9703125 38.85089844 0.828125 38.41992188 C-8.02410179 34.95713904 -17.72510314 30.63516017 -22.9375 22.25 C-23.30197883 20.92484187 -23.64085348 19.59197233 -23.9375 18.25 C-25.1100131 19.20117134 -26.27537015 20.16117009 -27.4375 21.125 C-28.0871875 21.65867187 -28.736875 22.19234375 -29.40625 22.7421875 C-30.16421875 23.48855469 -30.16421875 23.48855469 -30.9375 24.25 C-30.9375 24.91 -30.9375 25.57 -30.9375 26.25 C-30.33164063 26.46914062 -29.72578125 26.68828125 -29.1015625 26.9140625 C-23.74102887 28.9428183 -18.93291784 31.29633381 -14.07421875 34.32421875 C-9.70196425 37.00855433 -5.25641846 39.56156331 -0.8125 42.125 C0.05431396 42.62588135 0.92112793 43.1267627 1.81420898 43.64282227 C3.89654657 44.84595527 5.97931492 46.04833519 8.0625 47.25 C5.0625 48.25 5.0625 48.25 1.69140625 46.80859375 C0.33081305 46.11147478 -1.02439863 45.40378532 -2.375 44.6875 C-3.81114714 43.94651615 -5.24734561 43.20563179 -6.68359375 42.46484375 C-7.39757324 42.09214355 -8.11155273 41.71944336 -8.84716797 41.33544922 C-11.8598431 39.77105379 -14.89763329 38.26087535 -17.9375 36.75 C-19.60416667 35.91666667 -21.27083333 35.08333333 -22.9375 34.25 C-19.27567484 44.25066645 -15.97072114 50.99305036 -6.5625 56.6875 C0.57482643 58.21692709 6.66795094 57.76073282 13.0625 54.25 C17.91721306 51.03686459 19.85570623 47.43246153 22.25 42.3125 C22.59224609 41.60931641 22.93449219 40.90613281 23.28710938 40.18164062 C28.19511363 30.64767177 28.19511363 30.64767177 28.0625 20.25 C25.66283411 17.98132024 23.06742309 16.5847761 20.0625 15.25 C20.289375 16.301875 20.51625 17.35375 20.75 18.4375 C21.09430444 22.63801417 20.55022258 23.9662062 18.0625 27.25 C16.96250229 23.54695427 17.13262688 20.38202425 17.41796875 16.56640625 C16.89036361 13.12827603 15.59337174 11.5953844 13.0625 9.25 C9.92996985 8.75693194 9.92996985 8.75693194 6.5 9.125 C-0.19545071 9.39141584 -5.62669898 8.41370321 -11.9375 6.25 C-11.1875 3.8125 -11.1875 3.8125 -9.9375 1.25 C-6.84270676 -0.1560976 -3.36311157 0.05089198 0 0 Z " fill="#CFBFB6" transform="translate(163.9375,84.75)"/>
<path d="M0 0 C1.92828735 -0.03045555 3.85671317 -0.052232 5.78515625 -0.0703125 C6.85902588 -0.08336426 7.93289551 -0.09641602 9.03930664 -0.10986328 C13.49890248 0.0556202 16.21616644 1.30389596 19.4296875 4.359375 C22.24335492 7.44328167 23.71089634 9.8561809 24 14 C24.061875 14.6703125 24.12375 15.340625 24.1875 16.03125 C24.5083118 21.88606531 23.37255406 26.17582882 20 31 C15.86027915 35.03622783 13.11669543 35.84880747 7.5 36.25 C3.66680153 35.97620011 2.56758139 35.77830637 0 33 C-0.35669893 30.35294872 -0.46776797 28.12764324 -0.390625 25.48828125 C-0.38496521 24.76005661 -0.37930542 24.03183197 -0.37347412 23.28153992 C-0.35110029 20.95785502 -0.30090669 18.63571793 -0.25 16.3125 C-0.22993609 14.73635041 -0.21168512 13.16017663 -0.1953125 11.58398438 C-0.15123283 7.72206076 -0.08220225 3.8612927 0 0 Z " fill="#D8CCC4" transform="translate(66,190)"/>
<path d="M0 0 C2.6512636 2.78190557 3.19826684 5.7978483 3.34765625 9.4765625 C3.11251305 13.245209 2.58181776 16.5496564 0.91015625 19.9765625 C-4.13742108 23.30284618 -10.35196284 23.08479321 -16.08984375 21.9765625 C-20.02646263 19.49054016 -23.18224006 16.61270797 -26.08984375 12.9765625 C-26.08984375 12.3165625 -26.08984375 11.6565625 -26.08984375 10.9765625 C-27.07984375 10.6465625 -28.06984375 10.3165625 -29.08984375 9.9765625 C-27.69387304 5.5348375 -25.65477251 2.96115402 -22.08984375 -0.0234375 C-15.76639361 -1.78681525 -6.098956 -2.98677845 0 0 Z " fill="#D0B0A9" transform="translate(179.08984375,94.0234375)"/>
<path d="M0 0 C3.79139846 -0.11771717 7.58231735 -0.18775198 11.375 -0.25 C12.96634766 -0.30027344 12.96634766 -0.30027344 14.58984375 -0.3515625 C22.69600227 -0.45102457 30.00357318 0.49460173 36.2890625 6.0078125 C39.87349515 11.68840459 41.26141089 16.3048191 40 23 C37.81394788 29.72008615 34.26757327 33.19841906 28.109375 36.59375 C22.8054216 38.82520244 17.21299921 38.31828307 11.5625 38.1875 C10.44939453 38.17396484 9.33628906 38.16042969 8.18945312 38.14648438 C5.45912788 38.11132997 2.72982256 38.06212106 0 38 C0.99 37.34 1.98 36.68 3 36 C3.30441916 33.39922648 3.42017445 31.04016599 3.3984375 28.4375 C3.40130768 27.69040771 3.40417786 26.94331543 3.40713501 26.17358398 C3.40917747 24.59325401 3.40363481 23.01289887 3.39111328 21.43261719 C3.37506089 19.00919236 3.39095439 16.58743526 3.41015625 14.1640625 C3.40817385 12.63020464 3.40433023 11.09634782 3.3984375 9.5625 C3.40754654 8.47183228 3.40754654 8.47183228 3.4168396 7.35913086 C3.41996114 5.09813197 3.41996114 5.09813197 3 2 C2.01 1.34 1.02 0.68 0 0 Z M10 1 C9.9011197 5.6447121 9.8285285 10.28881173 9.78027344 14.93432617 C9.76015814 16.51451285 9.73286196 18.09462509 9.69824219 19.67456055 C9.64971657 21.94598748 9.62703191 24.21643058 9.609375 26.48828125 C9.58872986 27.19463211 9.56808472 27.90098297 9.54681396 28.6287384 C9.54534231 31.84585763 9.57484458 33.54474559 11.81738281 35.94604492 C16.27444661 38.09829821 20.1176703 37.28414007 24.6875 35.8125 C28.97646481 33.46570793 30.91083048 30.96050514 33.25 26.75 C34.87856795 20.7785842 34.63004023 14.63580049 32 9 C29.02107121 4.81339738 26.9028647 2.50317055 22 1 C18.87420806 0.75987081 18.87420806 0.75987081 15.6875 0.875 C14.61886719 0.89304688 13.55023438 0.91109375 12.44921875 0.9296875 C11.23685547 0.96449219 11.23685547 0.96449219 10 1 Z " fill="#7C191F" transform="translate(56,189)"/>
<path d="M0 0 C7.52926829 -1.07560976 7.52926829 -1.07560976 11.35546875 1.72265625 C13.68894634 4.06416647 15.86188216 6.47923007 18 9 C18.59554687 9.66902344 19.19109375 10.33804688 19.8046875 11.02734375 C20.93543704 12.30139105 22.05658487 13.58402482 23.16796875 14.875 C25.35954376 17.41704009 27.58024304 19.93110622 29.8125 22.4375 C30.56144531 23.28183594 31.31039062 24.12617188 32.08203125 24.99609375 C33.84418571 27.06248234 33.84418571 27.06248234 36 28 C35.91945528 23.7075448 35.80658477 19.41654533 35.6875 15.125 C35.65366211 13.29001953 35.65366211 13.29001953 35.61914062 11.41796875 C35.58369141 10.25136719 35.54824219 9.08476562 35.51171875 7.8828125 C35.48553467 6.80402832 35.45935059 5.72524414 35.43237305 4.61376953 C35.21834839 3.31995361 35.21834839 3.31995361 35 2 C34.01 1.34 33.02 0.68 32 0 C35.63 0 39.26 0 43 0 C41.02 0.99 41.02 0.99 39 2 C38.67 13.88 38.34 25.76 38 38 C36.68 38 35.36 38 34 38 C32.09765625 36.0859375 32.09765625 36.0859375 30.0625 33.375 C25.76288862 27.85716539 21.15314844 22.76037753 16.34204102 17.68505859 C15.80764404 17.11867676 15.27324707 16.55229492 14.72265625 15.96875 C14.24578369 15.46794922 13.76891113 14.96714844 13.27758789 14.45117188 C12 13 12 13 10 10 C9.9132438 14.29154022 9.8596911 18.58285668 9.8125 22.875 C9.78736328 24.09832031 9.76222656 25.32164062 9.73632812 26.58203125 C9.72666016 27.74863281 9.71699219 28.91523438 9.70703125 30.1171875 C9.6913208 31.19597168 9.67561035 32.27475586 9.65942383 33.38623047 C9.77181396 34.24877441 9.8842041 35.11131836 10 36 C10.99 36.66 11.98 37.32 13 38 C10.03 38 7.06 38 4 38 C4.66 37.34 5.32 36.68 6 36 C6.46852769 31.78147607 6.45677668 27.54776976 6.48046875 23.30639648 C6.49984244 21.20459308 6.56183788 19.10674 6.625 17.00585938 C6.96742068 10.16410379 6.96742068 10.16410379 4.62890625 3.97119141 C2.84694218 2.42742775 2.84694218 2.42742775 0 1 C0 0.67 0 0.34 0 0 Z " fill="#681014" transform="translate(172,189)"/>
<path d="M0 0 C2 2 2 2 2.125 4.625 C2.08375 5.40875 2.0425 6.1925 2 7 C-0.31 7 -2.62 7 -5 7 C-5.268125 6.360625 -5.53625 5.72125 -5.8125 5.0625 C-6.88667752 2.66868314 -6.88667752 2.66868314 -10 2 C-11.97734566 1.90544339 -13.95790083 1.87010606 -15.9375 1.875 C-16.97777344 1.87242188 -18.01804688 1.86984375 -19.08984375 1.8671875 C-21.60021491 1.98175477 -23.64691851 2.13990814 -26 3 C-27.28436734 4.9837767 -27.28436734 4.9837767 -28 7 C-26.081875 7.185625 -26.081875 7.185625 -24.125 7.375 C-20.25 7.75 -20.25 7.75 -18 10 C-19.27875 10.2475 -20.5575 10.495 -21.875 10.75 C-25.20922205 11.50531973 -25.20922205 11.50531973 -27.4375 14 C-27.623125 14.66 -27.80875 15.32 -28 16 C-28.33 16.66 -28.66 17.32 -29 18 C-29.2275015 19.87056791 -29.40962811 21.74685958 -29.5625 23.625 C-29.68818359 25.12933594 -29.68818359 25.12933594 -29.81640625 26.6640625 C-29.87699219 27.43492188 -29.93757812 28.20578125 -30 29 C-36.14218841 23.0153036 -36.14218841 23.0153036 -36.375 17.6875 C-36.36234938 13.76580792 -36.13623537 13.16688833 -33.5 9.9375 C-32.675 9.298125 -31.85 8.65875 -31 8 C-31.99 7.67 -32.98 7.34 -34 7 C-34.375 4.8125 -34.375 4.8125 -34 2 C-25.42959133 -6.57040867 -9.87278581 -6.71349435 0 0 Z " fill="#173849" transform="translate(180,84)"/>
<path d="M0 0 C0.66 1.32 1.32 2.64 2 4 C1.113125 4.556875 0.22625 5.11375 -0.6875 5.6875 C-8.39248497 10.87216278 -14.55676105 18.89762309 -19 27 C-17.35 27 -15.7 27 -14 27 C-14 27.33 -14 27.66 -14 28 C-16.97 28 -19.94 28 -23 28 C-23 29.65 -23 31.3 -23 33 C-23.33 33 -23.66 33 -24 33 C-24.07420211 28.92497206 -24.1286257 24.85020608 -24.16479492 20.7746582 C-24.17987397 19.38852081 -24.2003405 18.00243106 -24.22631836 16.61645508 C-24.26273716 14.62341854 -24.27813018 12.63003277 -24.29296875 10.63671875 C-24.31653442 8.83787231 -24.31653442 8.83787231 -24.34057617 7.00268555 C-24 4 -24 4 -22.70776367 2.09204102 C-19.75723602 0.20530618 -16.46842877 0.93071761 -13.125 1.25 C-12.41730469 1.30285156 -11.70960938 1.35570313 -10.98046875 1.41015625 C-7.2592788 1.70812863 -3.64037413 2.17199334 0 3 C0 2.01 0 1.02 0 0 Z " fill="#AB8D58" transform="translate(145,88)"/>
<path d="M0 0 C9.8140625 -0.928125 9.8140625 -0.928125 13.875 2.25 C16.49162217 6.21285532 18.11297401 10.7744885 19.7890625 15.1953125 C20.92952894 17.83677994 22.25982666 19.73676878 24 22 C24 22.66 24 23.32 24 24 C24.556875 24.2475 25.11375 24.495 25.6875 24.75 C28.39971127 26.21606015 30.63587365 28.02989471 33 30 C30.91796875 31.3046875 30.91796875 31.3046875 28 32 C25.46719982 30.47227926 23.51649852 29.04191545 21.3125 27.125 C20.70035645 26.61630371 20.08821289 26.10760742 19.45751953 25.58349609 C18.21609603 24.55173523 16.98002701 23.51349634 15.74951172 22.46875 C13.3454385 20.45048256 10.85861827 18.54399183 8.375 16.625 C0.43116214 10.47055906 0.43116214 10.47055906 -0.390625 5.76171875 C-0.26041667 3.84114583 -0.13020833 1.92057292 0 0 Z " fill="#836941" transform="translate(122,116)"/>
<path d="M0 0 C3.4923841 -0.20543436 6.3576889 -0.2100757 9.69921875 0.8828125 C12.4190168 3.38558083 12.37664859 4.03750126 12.6015625 7.59765625 C12.63344613 9.41900854 12.64031801 11.24093307 12.625 13.0625 C12.625 14.88676522 12.63741428 16.71108568 12.6640625 18.53515625 C12.65842285 19.343479 12.6527832 20.15180176 12.64697266 20.98461914 C12.76347168 21.64969482 12.8799707 22.31477051 13 23 C13.99 23.66 14.98 24.32 16 25 C15 26 15 26 12.1875 26.125 C9 26 9 26 6.875 25.375 C4.93390694 24.78057104 4.93390694 24.78057104 3.125 26 C0.05949264 27.4425917 -1.80217868 26.95254252 -5 26 C-7.22867533 23.91990302 -7.88005231 22.5197733 -8.5625 19.5625 C-7.87152689 16.41473363 -6.4698162 15.0044102 -3.93359375 13.0703125 C-0.51306216 11.17692734 3.16586865 10.57085956 7 10 C6.67 7.36 6.34 4.72 6 2 C3.03 1.505 3.03 1.505 0 1 C0 0.67 0 0.34 0 0 Z " fill="#752324" transform="translate(107,201)"/>
<path d="M0 0 C2.125 1.9375 2.125 1.9375 3 5.5625 C3.04125 6.67625 3.0825 7.79 3.125 8.9375 C2.125 9.9375 2.125 9.9375 -1.47265625 10.03515625 C-2.96096867 10.0284822 -4.44926432 10.01652183 -5.9375 10 C-7.07541992 9.99323242 -7.07541992 9.99323242 -8.23632812 9.98632812 C-10.11591871 9.9745068 -11.99546899 9.95657078 -13.875 9.9375 C-13.771875 11.195625 -13.66875 12.45375 -13.5625 13.75 C-13.50449219 14.45769531 -13.44648438 15.16539062 -13.38671875 15.89453125 C-12.72676862 18.52929397 -12.14533675 19.42394217 -9.875 20.9375 C-6.67361932 21.3011162 -6.67361932 21.3011162 -3.1875 21.125 C-2.00800781 21.09792969 -0.82851562 21.07085937 0.38671875 21.04296875 C1.74216797 20.99076172 1.74216797 20.99076172 3.125 20.9375 C-0.25497981 24.40292874 -2.36577354 25.80029759 -7.3125 26.25 C-12.33057298 25.80981816 -14.59259677 24.15058414 -18.1875 20.75 C-20.37589484 17.10267527 -20.54385104 14.03924914 -19.875 9.9375 C-18.26379472 5.74836628 -16.3073836 2.83357366 -12.875 -0.0625 C-8.33558517 -1.57563828 -4.51227879 -1.66758129 0 0 Z " fill="#701518" transform="translate(166.875,202.0625)"/>
<path d="M0 0 C1.43861294 0.08746284 2.87597508 0.19565348 4.3125 0.3125 C5.11300781 0.37050781 5.91351563 0.42851562 6.73828125 0.48828125 C9.41612662 1.09414955 10.3778691 1.80779115 12 4 C12.25 7.125 12.25 7.125 12 10 C11 11 11 11 7.40234375 11.09765625 C5.91403133 11.0909822 4.42573568 11.07902183 2.9375 11.0625 C1.79958008 11.05573242 1.79958008 11.05573242 0.63867188 11.04882812 C-1.24091871 11.0370068 -3.12046899 11.01907078 -5 11 C-4.74445946 12.46109063 -4.46999628 13.91888096 -4.1875 15.375 C-4.03667969 16.18710938 -3.88585937 16.99921875 -3.73046875 17.8359375 C-3.12455058 20.35820641 -3.12455058 20.35820641 0 22 C2.97449608 22.24219315 2.97449608 22.24219315 6.1875 22.125 C7.27417969 22.10695312 8.36085937 22.08890625 9.48046875 22.0703125 C10.31191406 22.04710937 11.14335937 22.02390625 12 22 C8.63800767 25.59385387 6.67982518 26.84152593 1.6875 27.3125 C-2.6944916 26.94114478 -4.68317001 25.84299713 -8 23 C-8.875 20.75 -8.875 20.75 -9 19 C-9.66 19 -10.32 19 -11 19 C-11.37964752 14.25440599 -11.48228172 10.93011475 -9.25 6.625 C-7.28465887 4.33210202 -5.52921053 2.62592106 -3 1 C-2.34 1.33 -1.68 1.66 -1 2 C-1.474375 2.5775 -1.94875 3.155 -2.4375 3.75 C-3.96735244 5.95298751 -4.44338952 7.42770302 -5 10 C-3.35369672 9.85957123 -1.70795821 9.71250671 -0.0625 9.5625 C0.85402344 9.48128906 1.77054688 9.40007812 2.71484375 9.31640625 C4.96159732 9.23955024 4.96159732 9.23955024 6 8 C6.04063832 6.33382885 6.042721 4.66611905 6 3 C4.02 2.34 2.04 1.68 0 1 C0 0.67 0 0.34 0 0 Z " fill="#711D1F" transform="translate(233,201)"/>
<path d="M0 0 C0.20625 0.61875 0.4125 1.2375 0.625 1.875 C2.54849247 4.84767018 4.67319235 5.07981916 8 6 C9 7 9 7 9.3125 10.8125 C9.26271519 13.88809511 9.07883883 14.87567723 7.375 17.5625 C5 19 5 19 1.75 18.75 C0.8425 18.5025 -0.065 18.255 -1 18 C-0.175 17.319375 0.65 16.63875 1.5 15.9375 C4.36068704 13.15521993 4.36068704 13.15521993 4.3125 9.1875 C4.209375 8.135625 4.10625 7.08375 4 6 C1.69 5.67 -0.62 5.34 -3 5 C-1.68 6.65 -0.36 8.3 1 10 C0.34 10.66 -0.32 11.32 -1 12 C0.65 11.34 2.3 10.68 4 10 C3.375 12.4375 3.375 12.4375 2 15 C-0.75 16.125 -0.75 16.125 -4 16 C-6.98289554 14.24332942 -9.43040829 12.13918342 -11 9 C-11.3125 6.0625 -11.3125 6.0625 -11 3 C-7.91446809 -0.70263829 -4.55791101 -0.2629564 0 0 Z " fill="#881F25" transform="translate(166,96)"/>
<path d="M0 0 C0.66 0.99 1.32 1.98 2 3 C-4.81672844 15.65963854 -21.30518605 24.20345737 -33 32 C-33.50631587 34.13048442 -33.50631587 34.13048442 -33.5625 36.5 C-33.79245283 40.79245283 -33.79245283 40.79245283 -36 43 C-38.6015625 43.1953125 -38.6015625 43.1953125 -41.625 43.125 C-42.62789062 43.10695312 -43.63078125 43.08890625 -44.6640625 43.0703125 C-45.82035156 43.03550781 -45.82035156 43.03550781 -47 43 C-47 40 -47 37 -47 34 C-45.92685547 33.84917969 -45.92685547 33.84917969 -44.83203125 33.6953125 C-35.0870888 31.85474122 -29.36699209 27.21027004 -22 21 C-20.42310106 19.76258945 -18.84051676 18.5323572 -17.25 17.3125 C-16.55003906 16.76207031 -15.85007813 16.21164063 -15.12890625 15.64453125 C-13.63558029 14.4909712 -12.12030478 13.36553587 -10.58984375 12.26171875 C-5.61650694 8.61460509 -2.63114036 5.60547294 0 0 Z " fill="#A2A39E" transform="translate(206,122)"/>
<path d="M0 0 C0 4.29 0 8.58 0 13 C2.31 13 4.62 13 7 13 C7 13.33 7 13.66 7 14 C4.69 14 2.38 14 0 14 C0.33 20.27 0.66 26.54 1 33 C5.60532389 34.45314664 5.60532389 34.45314664 8 33 C7 36 7 36 5.3125 37.25 C2.21117147 38.25583628 0.1253275 37.81530283 -3 37 C-5 35 -5 35 -5.22705078 32.84521484 C-5.21657715 31.97590332 -5.20610352 31.1065918 -5.1953125 30.2109375 C-5.18886719 29.26992187 -5.18242187 28.32890625 -5.17578125 27.359375 C-5.15902344 26.37453125 -5.14226562 25.3896875 -5.125 24.375 C-5.11597656 23.38242188 -5.10695312 22.38984375 -5.09765625 21.3671875 C-5.07404116 18.91121866 -5.04110799 16.45572832 -5 14 C-6.32 13.67 -7.64 13.34 -9 13 C-8.01 12.67 -7.02 12.34 -6 12 C-5.87882813 11.21753906 -5.75765625 10.43507812 -5.6328125 9.62890625 C-5.46523437 8.61699219 -5.29765625 7.60507813 -5.125 6.5625 C-4.96257812 5.55316406 -4.80015625 4.54382813 -4.6328125 3.50390625 C-4.42398438 2.67761719 -4.21515625 1.85132813 -4 1 C-2 0 -2 0 0 0 Z " fill="#6B171A" transform="translate(135,190)"/>
<path d="M0 0 C0 4.29 0 8.58 0 13 C2.31 13 4.62 13 7 13 C7 13.33 7 13.66 7 14 C4.69 14 2.38 14 0 14 C0.33 20.27 0.66 26.54 1 33 C2.65 33.66 4.3 34.32 6 35 C4.23470379 37.22984785 3.34766278 37.93915901 0.5 38.4375 C-2 38 -2 38 -3.63793945 36.27050781 C-5.20741126 33.6542526 -5.35109764 32.25707746 -5.29296875 29.234375 C-5.28330078 28.34492188 -5.27363281 27.45546875 -5.26367188 26.5390625 C-5.23853516 25.61867187 -5.21339844 24.69828125 -5.1875 23.75 C-5.16719727 22.34621094 -5.16719727 22.34621094 -5.14648438 20.9140625 C-5.11119954 18.60878673 -5.06190281 16.3046894 -5 14 C-6.32 13.67 -7.64 13.34 -9 13 C-8.01 12.67 -7.02 12.34 -6 12 C-5.87882813 11.21753906 -5.75765625 10.43507812 -5.6328125 9.62890625 C-5.46523437 8.61699219 -5.29765625 7.60507813 -5.125 6.5625 C-4.96257812 5.55316406 -4.80015625 4.54382813 -4.6328125 3.50390625 C-4.42398438 2.67761719 -4.21515625 1.85132813 -4 1 C-2 0 -2 0 0 0 Z " fill="#6F0E12" transform="translate(259,190)"/>
<path d="M0 0 C0.9375 1.50390625 0.9375 1.50390625 2 3.5625 C8.11638925 13.5856003 19.49909794 17.17767165 30 21 C29.0409375 21.4640625 29.0409375 21.4640625 28.0625 21.9375 C26.06389179 22.8345163 26.06389179 22.8345163 25 24 C21.76174314 24 20.76223882 23.51077269 18.015625 21.953125 C17.24476563 21.52 16.47390625 21.086875 15.6796875 20.640625 C14.87789062 20.18171875 14.07609375 19.7228125 13.25 19.25 C12.46367187 18.8065625 11.67734375 18.363125 10.8671875 17.90625 C7.89163785 16.22570701 4.92307512 14.53367183 1.96459961 12.82324219 C-1.29324411 10.94254869 -4.45952024 9.28744719 -8 8 C-6.48291727 4.46014029 -4.24676932 0 0 0 Z " fill="#851C21" transform="translate(140,103)"/>
<path d="M0 0 C4.8187642 -0.68839489 7.51879315 -1.05510625 11.56640625 1.828125 C18.86659712 8.90567763 18.86659712 8.90567763 19 14 C18.01 14.99 17.02 15.98 16 17 C14.02 14.69 12.04 12.38 10 10 C9.9132438 14.29154022 9.8596911 18.58285668 9.8125 22.875 C9.78736328 24.09832031 9.76222656 25.32164062 9.73632812 26.58203125 C9.72666016 27.74863281 9.71699219 28.91523438 9.70703125 30.1171875 C9.6913208 31.19597168 9.67561035 32.27475586 9.65942383 33.38623047 C9.77181396 34.24877441 9.8842041 35.11131836 10 36 C10.99 36.66 11.98 37.32 13 38 C10.03 38 7.06 38 4 38 C4.66 37.34 5.32 36.68 6 36 C6.46852769 31.78147607 6.45677668 27.54776976 6.48046875 23.30639648 C6.49984244 21.20459308 6.56183788 19.10674 6.625 17.00585938 C6.96742068 10.16410379 6.96742068 10.16410379 4.62890625 3.97119141 C2.84694218 2.42742775 2.84694218 2.42742775 0 1 C0 0.67 0 0.34 0 0 Z " fill="#821A1E" transform="translate(172,189)"/>
<path d="M0 0 C2 3.75 2 3.75 2 6 C-2.13677403 9.81723199 -6.80549732 13.42745916 -12.5625 13.875 C-18.18414155 13.45337688 -22.02023655 9.6881023 -26 6 C-25.67 5.34 -25.34 4.68 -25 4 C-23.865625 4.04640625 -22.73125 4.0928125 -21.5625 4.140625 C-10.19950215 4.56449683 -10.19950215 4.56449683 0 0 Z " fill="#122A36" transform="translate(177,142)"/>
<path d="M0 0 C0.33 0 0.66 0 1 0 C1.16435547 1.01320313 1.16435547 1.01320313 1.33203125 2.046875 C1.49058594 2.93890625 1.64914063 3.8309375 1.8125 4.75 C1.96332031 5.63171875 2.11414063 6.5134375 2.26953125 7.421875 C3.05414248 10.1910911 4.14595359 11.8259401 6 14 C6.33 11.36 6.66 8.72 7 6 C7.66 6.33 8.32 6.66 9 7 C9.268125 8.051875 9.53625 9.10375 9.8125 10.1875 C11.31594907 15.01436282 13.43067258 18.44780838 17.89453125 21.14453125 C22.16162166 22.87828413 26.8877007 22.88654898 31.140625 21.1015625 C32.80779586 20.14598896 34.41159981 19.08146396 36 18 C34.95125002 20.62187494 34.35068687 21.79371361 31.875 23.25 C31.25625 23.4975 30.6375 23.745 30 24 C30 24.66 30 25.32 30 26 C30.94875 26.309375 31.8975 26.61875 32.875 26.9375 C36 28 36 28 38 29 C37.67 29.66 37.34 30.32 37 31 C33.03284026 29.50154709 29.0782753 27.97217035 25.125 26.4375 C24.01640625 26.01919922 22.9078125 25.60089844 21.765625 25.16992188 C11.83102657 21.28374072 1.30321597 16.43223594 -3.25 6.1875 C-3.4975 5.465625 -3.745 4.74375 -4 4 C-3.01 4 -2.02 4 -1 4 C-0.67 2.68 -0.34 1.36 0 0 Z " fill="#D5B7AF" transform="translate(143,98)"/>
<path d="M0 0 C1.46015291 0.28241641 2.91809793 0.57626614 4.375 0.875 C5.18710938 1.03742188 5.99921875 1.19984375 6.8359375 1.3671875 C9 2 9 2 11 4 C9.72125 4.2475 8.4425 4.495 7.125 4.75 C3.79077795 5.50531973 3.79077795 5.50531973 1.5625 8 C1.376875 8.66 1.19125 9.32 1 10 C0.67 10.66 0.34 11.32 0 12 C-0.2275015 13.87056791 -0.40962811 15.74685958 -0.5625 17.625 C-0.68818359 19.12933594 -0.68818359 19.12933594 -0.81640625 20.6640625 C-0.87699219 21.43492188 -0.93757812 22.20578125 -1 23 C-7.14218841 17.0153036 -7.14218841 17.0153036 -7.375 11.6875 C-7.35019976 7.84346214 -7.11787658 7.15199875 -4.625 3.9375 C-2 2 -2 2 0 2 C0 1.34 0 0.68 0 0 Z " fill="#8A1F23" transform="translate(151,90)"/>
<path d="M0 0 C1.01964844 -0.02578125 2.03929687 -0.0515625 3.08984375 -0.078125 C6.52786354 0.30136733 8.38803468 1.06314438 11.0625 3.25 C11.0625 4.57 11.0625 5.89 11.0625 7.25 C2.5317299 9.31941893 -3.66999829 9.2770774 -11.9375 6.25 C-11.1875 3.8125 -11.1875 3.8125 -9.9375 1.25 C-6.84270676 -0.1560976 -3.36311157 0.05089198 0 0 Z " fill="#D1CCC3" transform="translate(163.9375,84.75)"/>
<path d="M0 0 C0.71800781 0.7321875 1.43601562 1.464375 2.17578125 2.21875 C10.30577527 10.22505117 19.443204 16.91275645 28.76831055 23.4453125 C32.89891622 26.36412295 36.55351095 29.29314001 40 33 C39.34 33 38.68 33 38 33 C38.66 35.64 39.32 38.28 40 41 C38.68 40.67 37.36 40.34 36 40 C36.03730225 39.43224854 36.07460449 38.86449707 36.11303711 38.27954102 C36.0752569 34.4708987 35.8682504 31.93102686 33.20361328 29.07373047 C30.72481829 27.22491698 28.19178921 25.56513295 25.5625 23.9375 C23.72896951 22.73274737 21.89692074 21.5257365 20.06640625 20.31640625 C19.18742676 19.74680176 18.30844727 19.17719727 17.40283203 18.59033203 C11.41309966 14.62598366 6.07578496 10.07578496 1 5 C0.67 12.92 0.34 20.84 0 29 C-0.33 29 -0.66 29 -1 29 C-1.02891546 24.54168018 -1.04676981 20.08338431 -1.0625 15.625 C-1.07087891 14.35398438 -1.07925781 13.08296875 -1.08789062 11.7734375 C-1.09111328 10.56171875 -1.09433594 9.35 -1.09765625 8.1015625 C-1.10289307 6.98088379 -1.10812988 5.86020508 -1.11352539 4.70556641 C-1 2 -1 2 0 0 Z " fill="#AAAEAA" transform="translate(121,123)"/>
<path d="M0 0 C3.9166043 -0.0580966 7.83309763 -0.09362893 11.75 -0.125 C12.86117187 -0.14175781 13.97234375 -0.15851563 15.1171875 -0.17578125 C16.72207031 -0.18544922 16.72207031 -0.18544922 18.359375 -0.1953125 C19.34389648 -0.20578613 20.32841797 -0.21625977 21.34277344 -0.22705078 C24.05973111 0.00510382 25.68112513 0.60963727 28 2 C24.25 3.125 24.25 3.125 22 2 C18.04 1.67 14.08 1.34 10 1 C10 11.23 10 21.46 10 32 C9.67 32 9.34 32 9 32 C8.67 26.06 8.34 20.12 8 14 C7.34 13.67 6.68 13.34 6 13 C5.67 19.6 5.34 26.2 5 33 C4.67 33 4.34 33 4 33 C3.98541748 32.0713916 3.97083496 31.1427832 3.95581055 30.18603516 C3.89480828 26.74533504 3.8206695 23.30544348 3.73754883 19.86523438 C3.70426537 18.37543428 3.67624403 16.88550705 3.65356445 15.39550781 C3.62007929 13.25530748 3.56777211 11.11627581 3.51171875 8.9765625 C3.48553467 7.68830566 3.45935059 6.40004883 3.43237305 5.07275391 C3.28968994 4.05874512 3.14700684 3.04473633 3 2 C2.01 1.34 1.02 0.68 0 0 Z " fill="#8B2F32" transform="translate(56,189)"/>
<path d="M0 0 C3.4923841 -0.20543436 6.3576889 -0.2100757 9.69921875 0.8828125 C12.4190168 3.38558083 12.37664859 4.03750126 12.6015625 7.59765625 C12.63344613 9.41900854 12.64031801 11.24093307 12.625 13.0625 C12.625 14.88676522 12.63741428 16.71108568 12.6640625 18.53515625 C12.65842285 19.343479 12.6527832 20.15180176 12.64697266 20.98461914 C12.76347168 21.64969482 12.8799707 22.31477051 13 23 C13.99 23.66 14.98 24.32 16 25 C15 26 15 26 12.0625 26.25 C11.051875 26.1675 10.04125 26.085 9 26 C6.87719437 22.81579155 6.71980463 21.79462745 6.5859375 18.11328125 C6.54726562 17.17548828 6.50859375 16.23769531 6.46875 15.27148438 C6.4378125 14.29501953 6.406875 13.31855469 6.375 12.3125 C6.33632812 11.32443359 6.29765625 10.33636719 6.2578125 9.31835938 C6.16354133 6.87909293 6.07793782 4.43983405 6 2 C3.03 1.505 3.03 1.505 0 1 C0 0.67 0 0.34 0 0 Z " fill="#6F1216" transform="translate(107,201)"/>
<path d="M0 0 C0.70125 0.721875 1.4025 1.44375 2.125 2.1875 C2.59292969 2.63867188 3.06085938 3.08984375 3.54296875 3.5546875 C4.90852148 4.90925724 6.17778517 6.35898289 7.4375 7.8125 C12.13336275 11.7983782 19.25670731 10.35403859 25 10 C24.75 11.875 24.75 11.875 24 14 C20.00203854 16.74096047 15.66406859 16.6500444 11 16 C6.16547812 13.58273906 3.00185879 10.41449822 0 6 C-0.3125 2.625 -0.3125 2.625 0 0 Z " fill="#78191E" transform="translate(152,105)"/>
<path d="M0 0 C2.125 1.9375 2.125 1.9375 4 4 C5.20978076 4.74095703 6.44101049 5.44761479 7.6875 6.125 C11 8 11 8 12 10 C12.04022391 12.3329866 12.04320247 14.66706666 12 17 C11.34 17.33 10.68 17.66 10 18 C9.649375 16.7625 9.29875 15.525 8.9375 14.25 C7.68140834 10.81099177 6.51473968 9.28910557 3.3125 7.5 C2.219375 7.005 1.12625 6.51 0 6 C0.3403125 7.5778125 0.3403125 7.5778125 0.6875 9.1875 C1.03180444 13.38801417 0.48772258 14.7162062 -2 18 C-2.87985037 15.03806096 -3.00946703 12.63412105 -2.8125 9.5625 C-2.79635782 6.29639812 -2.99196118 5.01607764 -4.5 2 C-8.00889351 -0.80711481 -10.55071768 -0.77753588 -15 -1 C-15 -1.33 -15 -1.66 -15 -2 C-9.38297017 -3.58429046 -5.14764789 -2.41543478 0 0 Z " fill="#CCB2A9" transform="translate(184,94)"/>
<path d="M0 0 C8.81500987 -0.9242923 8.81500987 -0.9242923 13.125 2.4375 C15.34827127 5.77636291 15.64811604 8.92750991 15.44140625 12.875 C14.79415792 15.99095656 13.24999047 17.82032173 11 20 C10.34 19.67 9.68 19.34 9 19 C9.433125 17.2365625 9.433125 17.2365625 9.875 15.4375 C10.22976965 12.7013998 10.23008618 11.41160746 8.87109375 8.98046875 C6.1990133 5.79942059 3.81361156 3.71155551 0 2 C0 1.34 0 0.68 0 0 Z " fill="#83191E" transform="translate(167,93)"/>
<path d="M0 0 C0.99 0 1.98 0 3 0 C3 0.66 3 1.32 3 2 C6.465 1.505 6.465 1.505 10 1 C9.01 1.33 8.02 1.66 7 2 C7 2.66 7 3.32 7 4 C8.32 4.33 9.64 4.66 11 5 C10.67 6.65 10.34 8.3 10 10 C0.625 10 0.625 10 -4 9 C-4 6.36 -4 3.72 -4 1 C-3.34 1 -2.68 1 -2 1 C-2 3.31 -2 5.62 -2 8 C-1.34 8 -0.68 8 0 8 C0 5.36 0 2.72 0 0 Z " fill="#98948E" transform="translate(219,237)"/>
<path d="M0 0 C0.99 0.33 1.98 0.66 3 1 C3.06058594 2.24136719 3.12117188 3.48273438 3.18359375 4.76171875 C3.26803623 6.40365577 3.35268236 8.04558232 3.4375 9.6875 C3.47681641 10.50412109 3.51613281 11.32074219 3.55664062 12.16210938 C3.76898003 16.19655811 4.04447922 20.05747309 5 24 C2.69 24 0.38 24 -2 24 C-1.86152362 20.37467934 -1.71297357 16.74984096 -1.5625 13.125 C-1.52318359 12.09246094 -1.48386719 11.05992187 -1.44335938 9.99609375 C-1.40146484 9.00996094 -1.35957031 8.02382812 -1.31640625 7.0078125 C-1.27974854 6.09660645 -1.24309082 5.18540039 -1.20532227 4.24658203 C-1 2 -1 2 0 0 Z " fill="#6F0A10" transform="translate(62,202)"/>
<path d="M0 0 C4.29 0 8.58 0 13 0 C12.01 0.33 11.02 0.66 10 1 C10.33 1.66 10.66 2.32 11 3 C11.99 3.33 12.98 3.66 14 4 C13.67 5.65 13.34 7.3 13 9 C8.71 9 4.42 9 0 9 C-0.33 8.34 -0.66 7.68 -1 7 C0.32 6.67 1.64 6.34 3 6 C2.01 5.34 1.02 4.68 0 4 C0 2.68 0 1.36 0 0 Z " fill="#95918C" transform="translate(255,238)"/>
<path d="M0 0 C0.33 0.99 0.66 1.98 1 3 C0.00390625 4.82421875 0.00390625 4.82421875 -1.4375 6.6875 C-1.91058594 7.31011719 -2.38367188 7.93273437 -2.87109375 8.57421875 C-3.24363281 9.04472656 -3.61617187 9.51523438 -4 10 C-4.33 9.01 -4.66 8.02 -5 7 C-5.58265625 7.3609375 -6.1653125 7.721875 -6.765625 8.09375 C-13.6733527 12.00378455 -19.14390887 12.60742973 -27 12 C-27 11.67 -27 11.34 -27 11 C-26.195625 10.87625 -25.39125 10.7525 -24.5625 10.625 C-23.716875 10.41875 -22.87125 10.2125 -22 10 C-21.67 9.34 -21.34 8.68 -21 8 C-18.84765625 7.578125 -18.84765625 7.578125 -16.0625 7.25 C-9.75611854 6.24296003 -5.20278301 3.58890455 0 0 Z " fill="#C0B8B3" transform="translate(184,135)"/>
<path d="M0 0 C3.3 0 6.6 0 10 0 C10 2.64 10 5.28 10 8 C10.99 8.33 11.98 8.66 13 9 C8.71 9 4.42 9 0 9 C0 6.03 0 3.06 0 0 Z " fill="#8B8782" transform="translate(101,238)"/>
<path d="M0 0 C6.875 1.875 6.875 1.875 8 3 C8.1875 5.4375 8.1875 5.4375 8 8 C6 10 6 10 3.6171875 10.1953125 C2.71226562 10.17210937 1.80734375 10.14890625 0.875 10.125 C-0.49011719 10.09792969 -0.49011719 10.09792969 -1.8828125 10.0703125 C-2.58148438 10.04710937 -3.28015625 10.02390625 -4 10 C-3.5205537 5.78087253 -2.83374881 3.20336822 0 0 Z " fill="#B8A89F" transform="translate(232,201)"/>
<path d="M0 0 C0.02687279 1.81242052 0.04633715 3.62495233 0.0625 5.4375 C0.07410156 6.44683594 0.08570312 7.45617187 0.09765625 8.49609375 C0 11 0 11 -1 12 C-4.5 12.125 -4.5 12.125 -8 12 C-9 11 -9 11 -9.3125 7.625 C-9 4 -9 4 -7.25 2.125 C-4.89016955 0.94508478 -2.6756825 0 0 0 Z " fill="#D0C3B8" transform="translate(114,212)"/>
<path d="M0 0 C2 2 2 2 2.125 5.125 C2.08375 6.07375 2.0425 7.0225 2 8 C-0.52475462 9.26237731 -2.31200466 9.09856404 -5.125 9.0625 C-6.03507813 9.05347656 -6.94515625 9.04445312 -7.8828125 9.03515625 C-8.58148438 9.02355469 -9.28015625 9.01195312 -10 9 C-9.51578947 3.55263158 -9.51578947 3.55263158 -7.25 1.125 C-4.58314728 -0.20842636 -2.94521505 -0.3875283 0 0 Z " fill="#C7B9AF" transform="translate(163,202)"/>
<path d="M0 0 C2.875 1.0625 2.875 1.0625 5 3 C5.875 6.625 5.875 6.625 6 10 C5 11 5 11 1.40234375 11.09765625 C-0.08596867 11.0909822 -1.57426432 11.07902183 -3.0625 11.0625 C-4.20041992 11.05573242 -4.20041992 11.05573242 -5.36132812 11.04882812 C-7.24091871 11.0370068 -9.12046899 11.01907078 -11 11 C-11 12.98 -11 14.96 -11 17 C-11.33 17 -11.66 17 -12 17 C-12.33 14.03 -12.66 11.06 -13 8 C-12.34 7.67 -11.68 7.34 -11 7 C-11 7.99 -11 8.98 -11 10 C-5.06 9.505 -5.06 9.505 1 9 C0.34 6.69 -0.32 4.38 -1 2 C-5.82194643 2.32504259 -5.82194643 2.32504259 -9.9375 4.5625 C-10.288125 5.036875 -10.63875 5.51125 -11 6 C-11.33 5.01 -11.66 4.02 -12 3 C-7.89826183 0.01691769 -5.03733161 -0.5397141 0 0 Z " fill="#7A171C" transform="translate(164,201)"/>
<path d="M0 0 C0.53625 0.2475 1.0725 0.495 1.625 0.75 C0.8825 1.08 0.14 1.41 -0.625 1.75 C-3.92860427 4.15262129 -4.8072533 6.28921798 -6.28515625 10.0078125 C-7.375 11.75 -7.375 11.75 -9.32421875 12.34375 C-10.00097656 12.4778125 -10.67773438 12.611875 -11.375 12.75 C-14.16697732 15.04182272 -14.16697732 15.04182272 -16.375 17.75 C-16.375 18.74 -16.375 19.73 -16.375 20.75 C-17.035 20.75 -17.695 20.75 -18.375 20.75 C-18.375 19.76 -18.375 18.77 -18.375 17.75 C-19.035 17.42 -19.695 17.09 -20.375 16.75 C-5.45786433 -0.57451203 -5.45786433 -0.57451203 0 0 Z " fill="#D9C9BC" transform="translate(149.375,91.25)"/>
<path d="M0 0 C0.66 0 1.32 0 2 0 C2.66 1.32 3.32 2.64 4 4 C4.33 2.68 4.66 1.36 5 0 C5.99 0.33 6.98 0.66 8 1 C10.00875442 0.72428861 12.01178687 0.39764263 14 0 C13.01 0.33 12.02 0.66 11 1 C11.33 1.66 11.66 2.32 12 3 C12.99 3.33 13.98 3.66 15 4 C14.67 5.65 14.34 7.3 14 9 C13.0925 8.814375 12.185 8.62875 11.25 8.4375 C8.31685676 8.04265379 6.7355343 8.05308428 4 9 C3.34 7.68 2.68 6.36 2 5 C1.34 6.32 0.68 7.64 0 9 C0 6.03 0 3.06 0 0 Z " fill="#98948D" transform="translate(146,238)"/>
<path d="M0 0 C0 4.29 0 8.58 0 13 C2.31 13 4.62 13 7 13 C7 13.33 7 13.66 7 14 C4.69 14 2.38 14 0 14 C0.33 20.27 0.66 26.54 1 33 C2.65 33.66 4.3 34.32 6 35 C4.23470379 37.22984785 3.34766278 37.93915901 0.5 38.4375 C-2 38 -2 38 -3.64453125 36.30078125 C-5.27024797 33.54127939 -5.31276948 31.92349359 -5.1875 28.75 C-5.16042969 27.85796875 -5.13335937 26.9659375 -5.10546875 26.046875 C-5.07066406 25.37140625 -5.03585938 24.6959375 -5 24 C-4.67 24 -4.34 24 -4 24 C-3.93941406 24.62648437 -3.87882813 25.25296875 -3.81640625 25.8984375 C-3.69072266 27.12433594 -3.69072266 27.12433594 -3.5625 28.375 C-3.48128906 29.18710938 -3.40007812 29.99921875 -3.31640625 30.8359375 C-3.10909886 33.04272805 -3.10909886 33.04272805 -2 35 C-1.67 24.44 -1.34 13.88 -1 3 C-1.99 3.33 -2.98 3.66 -4 4 C-4 3.01 -4 2.02 -4 1 C-2 0 -2 0 0 0 Z " fill="#621718" transform="translate(259,190)"/>
<path d="M0 0 C0.47308594 0.3609375 0.94617188 0.721875 1.43359375 1.09375 C5.91094472 4.23575068 9.30006545 5.73808242 14.8125 5.44140625 C18.43076062 4.71129295 20.9632645 3.06756459 24 1 C22.95125002 3.62187494 22.35068687 4.79371361 19.875 6.25 C19.25625 6.4975 18.6375 6.745 18 7 C18 7.66 18 8.32 18 9 C18.94875 9.309375 19.8975 9.61875 20.875 9.9375 C24 11 24 11 26 12 C25.67 12.66 25.34 13.32 25 14 C20.84974466 12.38613531 16.7056255 10.75707223 12.5625 9.125 C11.37849609 8.66480469 10.19449219 8.20460938 8.97460938 7.73046875 C7.84990234 7.28574219 6.72519531 6.84101562 5.56640625 6.3828125 C4.52427979 5.97434082 3.48215332 5.56586914 2.40844727 5.14501953 C0 4 0 4 -1 2 C-0.67 1.34 -0.34 0.68 0 0 Z " fill="#C9A19B" transform="translate(155,115)"/>
<path d="M0 0 C2.59062158 0.25906216 3.83261175 0.85569978 5.8125 2.5625 C7.6184331 6.26941532 6.7356021 8.9876249 6 13 C7.32 12.01 8.64 11.02 10 10 C9.75 12.375 9.75 12.375 9 15 C5.58060218 17.43303306 2.33550239 17.20671005 -1.75 17.125 C-2.92046875 17.10695313 -4.0909375 17.08890625 -5.296875 17.0703125 C-6.18890625 17.04710938 -7.0809375 17.02390625 -8 17 C-5.71194252 15.79268457 -3.93873225 14.98832995 -1.375 14.5 C1.17526091 14.18891761 1.17526091 14.18891761 3 12 C3.38949849 7.9557131 3.38949849 7.9557131 3 4 C1.15811388 1.94729537 1.15811388 1.94729537 -1 1 C-0.67 0.67 -0.34 0.34 0 0 Z " fill="#CBA9A6" transform="translate(171,99)"/>
<path d="M0 0 C4.13937592 3.30015998 7.58662205 6.17324411 10 11 C9.01 11.495 9.01 11.495 8 12 C7.01 13.485 7.01 13.485 6 15 C4.63080716 13.59785066 3.28001291 12.17771527 1.9375 10.75 C1.18339844 9.96109375 0.42929688 9.1721875 -0.34765625 8.359375 C-2 6 -2 6 -1.80859375 3.828125 C-1.23772009 2.53745412 -0.63114627 1.26229253 0 0 Z " fill="#74151A" transform="translate(191,201)"/>
<path d="M0 0 C3.63 0 7.26 0 11 0 C9.02 0.99 9.02 0.99 7 2 C6.67 11.57 6.34 21.14 6 31 C4.68 30.34 3.36 29.68 2 29 C2.66 28.67 3.32 28.34 4 28 C3.91945528 23.7075448 3.80658477 19.41654533 3.6875 15.125 C3.66494141 13.90167969 3.64238281 12.67835938 3.61914062 11.41796875 C3.58369141 10.25136719 3.54824219 9.08476562 3.51171875 7.8828125 C3.48553467 6.80402832 3.45935059 5.72524414 3.43237305 4.61376953 C3.28968994 3.75122559 3.14700684 2.88868164 3 2 C2.01 1.34 1.02 0.68 0 0 Z " fill="#7D3E3D" transform="translate(204,189)"/>
<path d="M0 0 C10.02578245 4.80434259 19.54487517 10.16006996 29 16 C26 17 26 17 22.62890625 15.55859375 C21.26831305 14.86147478 19.91310137 14.15378532 18.5625 13.4375 C17.12635286 12.69651615 15.69015439 11.95563179 14.25390625 11.21484375 C13.18293701 10.65579346 13.18293701 10.65579346 12.09033203 10.08544922 C9.0776569 8.52105379 6.03986671 7.01087535 3 5.5 C1.33333333 4.66666667 -0.33333333 3.83333333 -2 3 C-1.34 2.67 -0.68 2.34 0 2 C0 1.34 0 0.68 0 0 Z " fill="#D2B1AA" transform="translate(143,116)"/>
<path d="M0 0 C0 4.29 0 8.58 0 13 C2.31 13 4.62 13 7 13 C7 13.33 7 13.66 7 14 C5.37585622 14.19477739 3.75063577 14.38059458 2.125 14.5625 C1.22007812 14.66691406 0.31515625 14.77132812 -0.6171875 14.87890625 C-3 15 -3 15 -5 14 C-6.32860925 13.64830932 -7.66158328 13.31229724 -9 13 C-8.01 12.67 -7.02 12.34 -6 12 C-5.87882813 11.21753906 -5.75765625 10.43507812 -5.6328125 9.62890625 C-5.46523437 8.61699219 -5.29765625 7.60507813 -5.125 6.5625 C-4.96257812 5.55316406 -4.80015625 4.54382813 -4.6328125 3.50390625 C-4.42398438 2.67761719 -4.21515625 1.85132813 -4 1 C-2 0 -2 0 0 0 Z " fill="#7D2023" transform="translate(135,190)"/>
<path d="M0 0 C1.45922693 0.11409593 2.91740598 0.24165544 4.375 0.375 C5.59316406 0.47941406 5.59316406 0.47941406 6.8359375 0.5859375 C9 1 9 1 11 3 C11.67168999 9.94079656 11.67168999 9.94079656 9.375 13.5625 C7 15 7 15 3.75 14.75 C2.38875 14.37875 2.38875 14.37875 1 14 C1.825 13.319375 2.65 12.63875 3.5 11.9375 C6.36068704 9.15521993 6.36068704 9.15521993 6.3125 5.1875 C6.209375 4.135625 6.10625 3.08375 6 2 C3.03 1.505 3.03 1.505 0 1 C0 0.67 0 0.34 0 0 Z " fill="#7A1A1E" transform="translate(164,100)"/>
<path d="M0 0 C7.01834862 2.02752294 7.01834862 2.02752294 9 5 C9.1875 7.6875 9.1875 7.6875 9 10 C5.6875 10.3125 5.6875 10.3125 2 10 C-0.1134458 7.39341685 -0.9418653 5.1744041 -2 2 C-1.34 2 -0.68 2 0 2 C0 1.34 0 0.68 0 0 Z " fill="#15303E" transform="translate(173,81)"/>
<path d="M0 0 C2.71647691 2.71647691 2.26635397 4.23463922 2.30859375 8.03125 C2.33373047 9.23394531 2.35886719 10.43664062 2.38476562 11.67578125 C2.41992117 14.22520955 2.45117139 16.7746947 2.47851562 19.32421875 C2.50494141 20.52691406 2.53136719 21.72960937 2.55859375 22.96875 C2.57204834 24.07669922 2.58550293 25.18464844 2.59936523 26.32617188 C2.73157471 27.20853516 2.86378418 28.09089844 3 29 C3.99 29.66 4.98 30.32 6 31 C3.03 31 0.06 31 -3 31 C-2.34 30.34 -1.68 29.68 -1 29 C-0.62703444 25.99027343 -0.62703444 25.99027343 -0.5859375 22.4609375 C-0.54726562 21.15898437 -0.50859375 19.85703125 -0.46875 18.515625 C-0.43729237 17.13542138 -0.40604509 15.75521296 -0.375 14.375 C-0.33682066 12.98695459 -0.29776895 11.59893289 -0.2578125 10.2109375 C-0.16327057 6.80742815 -0.07772103 3.40392835 0 0 Z " fill="#793D3C" transform="translate(179,196)"/>
<path d="M0 0 C3.63 0 7.26 0 11 0 C11 1.98 11 3.96 11 6 C9.35425434 6.02688151 7.70838587 6.04634123 6.0625 6.0625 C5.14597656 6.07410156 4.22945312 6.08570313 3.28515625 6.09765625 C1 6 1 6 0 5 C0 3.35 0 1.7 0 0 Z " fill="#7B6039" transform="translate(159,157)"/>
<path d="M0 0 C0 0.66 0 1.32 0 2 C-1.32 2.33 -2.64 2.66 -4 3 C-4.22609337 5.12364481 -4.22609337 5.12364481 -2.5 6.625 C-2.005 7.07875 -1.51 7.5325 -1 8 C-2.32 8.99 -3.64 9.98 -5 11 C-6.32 10.34 -7.64 9.68 -9 9 C-8.875 5.6875 -8.875 5.6875 -8 2 C-2.91891892 -1.45945946 -2.91891892 -1.45945946 0 0 Z " fill="#BA7A78" transform="translate(168,98)"/>
<path d="M0 0 C2.31 0 4.62 0 7 0 C6.67 1.98 6.34 3.96 6 6 C5.01 6 4.02 6 3 6 C3 6.66 3 7.32 3 8 C3.99 8 4.98 8 6 8 C6 8.66 6 9.32 6 10 C4.02 10 2.04 10 0 10 C0 6.7 0 3.4 0 0 Z " fill="#827E79" transform="translate(246,237)"/>
<path d="M0 0 C2 2 2 2 2 5 C-5.21505147 9.09256636 -11.38228796 9.50640207 -19.5625 9.25 C-20.66658203 9.23195312 -21.77066406 9.21390625 -22.90820312 9.1953125 C-25.60639981 9.14859048 -28.30272035 9.0831014 -31 9 C-27.01647791 6.69096728 -24.49885947 7.13483472 -20 8 C-19.67 7.34 -19.34 6.68 -19 6 C-18.34 6.33 -17.68 6.66 -17 7 C-11.54042012 7.42820234 -7.82459382 6.59785821 -3 4 C-1.07663031 1.97053147 -1.07663031 1.97053147 0 0 Z " fill="#722A29" transform="translate(87,218)"/>
<path d="M0 0 C1.64936913 0.78427352 3.29441127 1.57765259 4.9375 2.375 C5.85402344 2.81585938 6.77054688 3.25671875 7.71484375 3.7109375 C10 5 10 5 11 7 C11.04022391 9.3329866 11.04320247 11.66706666 11 14 C10.01 14.495 10.01 14.495 9 15 C8.649375 13.7625 8.29875 12.525 7.9375 11.25 C6.68140834 7.81099177 5.51473968 6.28910557 2.3125 4.5 C1.219375 4.005 0.12625 3.51 -1 3 C-1.33 3.66 -1.66 4.32 -2 5 C-2 4.01 -2 3.02 -2 2 C-1.34 2 -0.68 2 0 2 C0 1.34 0 0.68 0 0 Z " fill="#CEBDB2" transform="translate(185,97)"/>
<path d="M0 0 C1.66611905 -0.042721 3.33382885 -0.04063832 5 0 C6 1 6 1 6.1875 3.9375 C6 7 6 7 4 9 C0.46428571 8.46428571 0.46428571 8.46428571 -1 7 C-0.71269945 4.66055264 -0.38063221 2.3260857 0 0 Z " fill="#2E2C29" transform="translate(137,238)"/>
<path d="M0 0 C1.98 0 3.96 0 6 0 C6.09765625 6.15234375 6.09765625 6.15234375 6 8 C5 9 5 9 2.4375 9.0625 C1.633125 9.041875 0.82875 9.02125 0 9 C0 6.03 0 3.06 0 0 Z " fill="#46433F" transform="translate(206,238)"/>
<path d="M0 0 C1.66666667 1.66666667 3.33333333 3.33333333 5 5 C5.94875 5.845625 6.8975 6.69125 7.875 7.5625 C8.926875 8.7690625 8.926875 8.7690625 10 10 C9.8125 12.3125 9.8125 12.3125 9 14 C4.76605553 12.43187242 2.52967848 9.65398002 0 6 C-0.3125 2.625 -0.3125 2.625 0 0 Z " fill="#832528" transform="translate(152,105)"/>
<path d="M0 0 C2.31 0.33 4.62 0.66 7 1 C7.75 4.25 7.75 4.25 8 8 C5.82946501 10.94572605 4.47817177 11.84060941 1 13 C0.67 12.34 0.34 11.68 0 11 C1.65 10.34 3.3 9.68 5 9 C5 8.34 5 7.68 5 7 C3.35 7.33 1.7 7.66 0 8 C0.99 6.68 1.98 5.36 3 4 C2.01 3.34 1.02 2.68 0 2 C0 1.34 0 0.68 0 0 Z " fill="#CCA8A1" transform="translate(163,101)"/>
<path d="M0 0 C1.66611905 -0.042721 3.33382885 -0.04063832 5 0 C6 1 6 1 6.1875 3.9375 C6 7 6 7 4 9 C2.68 9 1.36 9 0 9 C0 6.03 0 3.06 0 0 Z " fill="#272522" transform="translate(194,238)"/>
<path d="M0 0 C1.66611905 -0.042721 3.33382885 -0.04063832 5 0 C6 1 6 1 6.1875 3.9375 C6 7 6 7 4 9 C2.68 9 1.36 9 0 9 C0 6.03 0 3.06 0 0 Z " fill="#2A2824" transform="translate(80,238)"/>
<path d="M0 0 C1.98 0 3.96 0 6 0 C6.33 2.97 6.66 5.94 7 9 C6.01 8.67 5.02 8.34 4 8 C4 7.34 4 6.68 4 6 C3.34 6 2.68 6 2 6 C2 6.99 2 7.98 2 9 C1.34 9 0.68 9 0 9 C0 6.03 0 3.06 0 0 Z " fill="#464541" transform="translate(92,238)"/>
<path d="M0 0 C1.98 0.99 1.98 0.99 4 2 C4.33 1.34 4.66 0.68 5 0 C5.66 0 6.32 0 7 0 C7 2.97 7 5.94 7 9 C6.01 8.67 5.02 8.34 4 8 C3.67 7.34 3.34 6.68 3 6 C2.67 6.99 2.34 7.98 2 9 C1.34 9 0.68 9 0 9 C0 6.03 0 3.06 0 0 Z " fill="#272523" transform="translate(237,238)"/>
<path d="M0 0 C3 1 3 1 4 3 C4.33 2.01 4.66 1.02 5 0 C5.66 0 6.32 0 7 0 C7 2.97 7 5.94 7 9 C6.01 8.67 5.02 8.34 4 8 C3.67 7.34 3.34 6.68 3 6 C2.67 6.99 2.34 7.98 2 9 C1.34 9 0.68 9 0 9 C0 6.03 0 3.06 0 0 Z " fill="#292926" transform="translate(184,238)"/>
<path d="M0 0 C3 1 3 1 4 3 C4.33 2.01 4.66 1.02 5 0 C5.66 0 6.32 0 7 0 C7 2.97 7 5.94 7 9 C6.01 8.67 5.02 8.34 4 8 C3.67 7.34 3.34 6.68 3 6 C2.67 6.99 2.34 7.98 2 9 C1.34 9 0.68 9 0 9 C0 6.03 0 3.06 0 0 Z " fill="#312F2B" transform="translate(70,238)"/>
<path d="M0 0 C0.66 0 1.32 0 2 0 C1.67 0.99 1.34 1.98 1 3 C0.84653047 5.65606301 0.74282102 8.29095095 0.68359375 10.94921875 C0.66281265 11.72183548 0.64203156 12.49445221 0.62062073 13.29048157 C0.55528962 15.7560648 0.49631685 18.22175361 0.4375 20.6875 C0.39429913 22.36003691 0.35068434 24.03256319 0.30664062 25.70507812 C0.1996251 29.8032775 0.09831143 33.90158296 0 38 C-1.32 37.67 -2.64 37.34 -4 37 C-3.01 37 -2.02 37 -1 37 C-1.00523682 35.91468994 -1.01047363 34.82937988 -1.01586914 33.71118164 C-1.03391836 29.69882018 -1.04543171 25.68646233 -1.05493164 21.67407227 C-1.05997204 19.93480832 -1.0668043 18.19554864 -1.07543945 16.45629883 C-1.08751792 13.96174063 -1.09323108 11.46723827 -1.09765625 8.97265625 C-1.10281754 8.19036148 -1.10797882 7.40806671 -1.11329651 6.60206604 C-1.11349226 4.73432886 -1.06199694 2.86670796 -1 1 C-0.67 0.67 -0.34 0.34 0 0 Z " fill="#B4958F" transform="translate(211,190)"/>
<path d="M0 0 C5.02254631 -0.2954439 7.89542386 0.01485372 12 3 C11.60196439 5.88575819 11.20990931 6.82189513 8.9375 8.75 C8.298125 9.1625 7.65875 9.575 7 10 C6.67 7.36 6.34 4.72 6 2 C3.03 1.505 3.03 1.505 0 1 C0 0.67 0 0.34 0 0 Z " fill="#7C1B1D" transform="translate(107,201)"/>
<path d="M0 0 C-4.71159603 3.73678306 -8.01903338 4.11284843 -14 4 C-13.67 2.68 -13.34 1.36 -13 0 C-11.20909747 -0.19466332 -9.41723495 -0.38051213 -7.625 -0.5625 C-6.12839844 -0.71912109 -6.12839844 -0.71912109 -4.6015625 -0.87890625 C-2 -1 -2 -1 0 0 Z " fill="#6D2B2B" transform="translate(245,224)"/>
<path d="M0 0 C0.66 0.99 1.32 1.98 2 3 C-0.82522609 7.67248931 -3.67760044 10.65996398 -8 14 C-8.66 13.34 -9.32 12.68 -10 12 C-9.0925 11.319375 -8.185 10.63875 -7.25 9.9375 C-3.77393779 7.07098424 -2.03435118 3.99045809 0 0 Z " fill="#B3B1A8" transform="translate(206,122)"/>
<path d="M0 0 C0.66 0 1.32 0 2 0 C2.103125 0.598125 2.20625 1.19625 2.3125 1.8125 C3.08876455 4.28243264 4.07088921 5.32251235 6 7 C3.69 7.66 1.38 8.32 -1 9 C-1 8.34 -1 7.68 -1 7 C-1.99 7 -2.98 7 -4 7 C-4 6.34 -4 5.68 -4 5 C-3.01 5 -2.02 5 -1 5 C-0.67 3.35 -0.34 1.7 0 0 Z " fill="#A19C95" transform="translate(253,238)"/>
<path d="M0 0 C0.66 0.33 1.32 0.66 2 1 C2.625 4.0625 2.625 4.0625 3 7 C1.35 7.33 -0.3 7.66 -2 8 C-2.6875 5.6875 -2.6875 5.6875 -3 3 C-1.5625 1.1875 -1.5625 1.1875 0 0 Z " fill="#7D2225" transform="translate(104,202)"/>
<path d="M0 0 C0.66 0 1.32 0 2 0 C2.99 2.97 3.98 5.94 5 9 C4.34 9 3.68 9 3 9 C3 8.34 3 7.68 3 7 C1.35 7.66 -0.3 8.32 -2 9 C-1.125 2.25 -1.125 2.25 0 0 Z " fill="#393732" transform="translate(118,238)"/>
<path d="M0 0 C0 4.29 0 8.58 0 13 C2.31 13 4.62 13 7 13 C7 13.33 7 13.66 7 14 C4.69 14 2.38 14 0 14 C0 15.98 0 17.96 0 20 C-0.33 20 -0.66 20 -1 20 C-1 14.39 -1 8.78 -1 3 C-1.99 3.33 -2.98 3.66 -4 4 C-4 3.01 -4 2.02 -4 1 C-2 0 -2 0 0 0 Z " fill="#732222" transform="translate(259,190)"/>
<path d="M0 0 C0.99 0.495 0.99 0.495 2 1 C3.29128429 4.94981078 4.25697027 8.91333648 5 13 C3.35 12.67 1.7 12.34 0 12 C0 8.04 0 4.08 0 0 Z " fill="#DAC3B8" transform="translate(150,104)"/>
<path d="M0 0 C1.65 0 3.3 0 5 0 C4.01 0.33 3.02 0.66 2 1 C2 1.66 2 2.32 2 3 C3.32 3.33 4.64 3.66 6 4 C5.67 5.65 5.34 7.3 5 9 C3.35 9 1.7 9 0 9 C0 8.34 0 7.68 0 7 C1.32 7 2.64 7 4 7 C4 6.34 4 5.68 4 5 C2.68 4.67 1.36 4.34 0 4 C0 2.68 0 1.36 0 0 Z " fill="#302D2B" transform="translate(224,238)"/>
<path d="M0 0 C1.65 0 3.3 0 5 0 C4.01 0.33 3.02 0.66 2 1 C2.33 1.66 2.66 2.32 3 3 C3.99 3.33 4.98 3.66 6 4 C5.67 5.65 5.34 7.3 5 9 C3.35 9 1.7 9 0 9 C0 8.34 0 7.68 0 7 C1.32 7 2.64 7 4 7 C4 6.34 4 5.68 4 5 C2.68 4.67 1.36 4.34 0 4 C0 2.68 0 1.36 0 0 Z " fill="#2D2B27" transform="translate(263,238)"/>
<path d="M0 0 C0.66 0 1.32 0 2 0 C2.66 1.32 3.32 2.64 4 4 C4.66 2.68 5.32 1.36 6 0 C6 2.97 6 5.94 6 9 C5.34 9 4.68 9 4 9 C3.34 7.68 2.68 6.36 2 5 C1.34 6.32 0.68 7.64 0 9 C0 6.03 0 3.06 0 0 Z " fill="#1E1D1A" transform="translate(146,238)"/>
<path d="M0 0 C0.66 0 1.32 0 2 0 C2 2.31 2 4.62 2 7 C2.99 7 3.98 7 5 7 C5 4.69 5 2.38 5 0 C5.33 0 5.66 0 6 0 C6 2.64 6 5.28 6 8 C4.34385343 8.38218767 2.67542976 8.71395102 1 9 C0 8 0 8 -0.09765625 6.15234375 C-0.06510417 4.1015625 -0.03255208 2.05078125 0 0 Z " fill="#252420" transform="translate(215,238)"/>
<path d="M0 0 C1.65 0 3.3 0 5 0 C4.01 0.33 3.02 0.66 2 1 C2 1.99 2 2.98 2 4 C2.99 4.33 3.98 4.66 5 5 C4.01 5 3.02 5 2 5 C2 5.66 2 6.32 2 7 C2.99 7 3.98 7 5 7 C5 7.66 5 8.32 5 9 C3.35 9 1.7 9 0 9 C0 6.03 0 3.06 0 0 Z " fill="#2C2A27" transform="translate(101,238)"/>
<path d="M0 0 C0.99 0 1.98 0 3 0 C3 3.3 3 6.6 3 10 C2.01 10 1.02 10 0 10 C0 6.7 0 3.4 0 0 Z " fill="#5A5853" transform="translate(232,237)"/>
<path d="M0 0 C0.99 0.33 1.98 0.66 3 1 C3.6875 3.3125 3.6875 3.3125 4 6 C2.5625 7.8125 2.5625 7.8125 1 9 C0.01 8.67 -0.98 8.34 -2 8 C-1.47731534 5.23723823 -0.89130413 2.6739124 0 0 Z " fill="#70181B" transform="translate(89,213)"/>
<path d="M0 0 C-4.455 3.465 -4.455 3.465 -9 7 C-9.66 6.67 -10.32 6.34 -11 6 C-10.67 4.35 -10.34 2.7 -10 1 C-9.67 1.99 -9.34 2.98 -9 4 C-8.34 3.01 -7.68 2.02 -7 1 C-4.00987436 -0.92911331 -3.51287078 -1.17095693 0 0 Z " fill="#4F4737" transform="translate(189,140)"/>
<path d="M0 0 C0.33 0 0.66 0 1 0 C1.63019694 8.03501094 1.63019694 8.03501094 -1 12.0625 C-1.66 12.701875 -2.32 13.34125 -3 14 C-3.66 13.67 -4.32 13.34 -5 13 C-4.40138258 10.64828869 -3.73075648 8.3140622 -3 6 C-2.34 5.67 -1.68 5.34 -1 5 C-0.34444881 2.47266765 -0.34444881 2.47266765 0 0 Z " fill="#7A2225" transform="translate(181,99)"/>
<path d="M0 0 C1.65 0 3.3 0 5 0 C4.01 0.33 3.02 0.66 2 1 C2.515625 1.391875 3.03125 1.78375 3.5625 2.1875 C4.036875 2.785625 4.51125 3.38375 5 4 C4.6875 6.6875 4.6875 6.6875 4 9 C2.35 8.67 0.7 8.34 -1 8 C0.32 7.34 1.64 6.68 3 6 C2.01 5.34 1.02 4.68 0 4 C0 2.68 0 1.36 0 0 Z " fill="#2C2A28" transform="translate(255,238)"/>
<path d="M0 0 C-4.97504047 3.24900602 -7.88225104 4.49940808 -14 4 C-12.68 3.34 -11.36 2.68 -10 2 C-10.33 1.34 -10.66 0.68 -11 0 C-9.54263913 -0.19491452 -8.08405407 -0.38069358 -6.625 -0.5625 C-5.81289062 -0.66691406 -5.00078125 -0.77132812 -4.1640625 -0.87890625 C-2 -1 -2 -1 0 0 Z " fill="#793B3B" transform="translate(170,224)"/>
<path d="M0 0 C0.66 0 1.32 0 2 0 C2 0.99 2 1.98 2 3 C2.99 3.33 3.98 3.66 5 4 C4.67 4.66 4.34 5.32 4 6 C1.69 6 -0.62 6 -3 6 C-1.125 1.125 -1.125 1.125 0 0 Z " fill="#DBCFC2" transform="translate(129,109)"/>
<path d="M0 0 C0.33 0 0.66 0 1 0 C1.34615998 5.65394631 0.43425238 9.03006806 -2 14 C-4.78637633 9.8204355 -3.79562512 7.85331323 -3 3 C-2.01 4.485 -2.01 4.485 -1 6 C-0.67 4.02 -0.34 2.04 0 0 Z " fill="#BFA99E" transform="translate(196,105)"/>
<path d="M0 0 C1.98 0.495 1.98 0.495 4 1 C3.01 1 2.02 1 1 1 C1.33 1.66 1.66 2.32 2 3 C2.99 3.33 3.98 3.66 5 4 C4.67 5.65 4.34 7.3 4 9 C2.35 8.67 0.7 8.34 -1 8 C-0.34 7.67 0.32 7.34 1 7 C1.66 7.33 2.32 7.66 3 8 C3 7.01 3 6.02 3 5 C1.68 4.67 0.36 4.34 -1 4 C-0.67 2.68 -0.34 1.36 0 0 Z " fill="#272321" transform="translate(156,238)"/>
<path d="M0 0 C1.79398267 0.95399078 3.58511655 1.91334026 5.375 2.875 C6.37273437 3.40867188 7.37046875 3.94234375 8.3984375 4.4921875 C11 6 11 6 13 8 C9.50596417 7.27623543 6.48001095 5.93714794 3.25 4.4375 C2.26515625 3.98246094 1.2803125 3.52742187 0.265625 3.05859375 C-0.48203125 2.70925781 -1.2296875 2.35992187 -2 2 C-1.34 1.34 -0.68 0.68 0 0 Z " fill="#C1928D" transform="translate(159,125)"/>
<path d="M0 0 C1.65 0 3.3 0 5 0 C3.68 0.33 2.36 0.66 1 1 C1 1.99 1 2.98 1 4 C1.99 4.33 2.98 4.66 4 5 C3.34 5 2.68 5 2 5 C2 5.66 2 6.32 2 7 C2.99 7 3.98 7 5 7 C5 7.66 5 8.32 5 9 C3.35 9 1.7 9 0 9 C0 6.03 0 3.06 0 0 Z " fill="#25211F" transform="translate(247,238)"/>
<path d="M0 0 C1.98 0.99 1.98 0.99 4 2 C3.01 2.495 3.01 2.495 2 3 C2.66 5.64 3.32 8.28 4 11 C2.68 10.67 1.36 10.34 0 10 C0 6.7 0 3.4 0 0 Z " fill="#B6B3AD" transform="translate(157,153)"/>
<path d="M0 0 C0.99 0 1.98 0 3 0 C3 2.64 3 5.28 3 8 C1.68 8.33 0.36 8.66 -1 9 C-0.67 6.03 -0.34 3.06 0 0 Z " fill="#9F9B94" transform="translate(212,238)"/>
<path d="M0 0 C-0.84884766 0.34611328 -0.84884766 0.34611328 -1.71484375 0.69921875 C-3.93041285 1.68434877 -5.97657555 2.66103202 -8 4 C-9.12815365 6.6147267 -9.12815365 6.6147267 -9 9 C-9.33 9 -9.66 9 -10 9 C-10.33 6.69 -10.66 4.38 -11 2 C-9.73392393 1.46770674 -8.46189588 0.94955456 -7.1875 0.4375 C-6.47980469 0.14746094 -5.77210937 -0.14257812 -5.04296875 -0.44140625 C-3 -1 -3 -1 0 0 Z " fill="#8E5251" transform="translate(114,212)"/>
<path d="M0 0 C0.33 0.99 0.66 1.98 1 3 C6.445 2.505 6.445 2.505 12 2 C12 2.66 12 3.32 12 4 C8.37 4 4.74 4 1 4 C1 5.98 1 7.96 1 10 C0.67 10 0.34 10 0 10 C-0.19412181 8.52168779 -0.38012131 7.04230684 -0.5625 5.5625 C-0.66691406 4.73878906 -0.77132812 3.91507813 -0.87890625 3.06640625 C-0.91886719 2.38449219 -0.95882812 1.70257813 -1 1 C-0.67 0.67 -0.34 0.34 0 0 Z " fill="#7F3C3B" transform="translate(152,208)"/>
<path d="M0 0 C3.15330554 0.60694155 5.18888867 1.6416665 7.75 3.5625 C8.67039063 4.24505859 8.67039063 4.24505859 9.609375 4.94140625 C10.29773438 5.46541016 10.29773438 5.46541016 11 6 C9.234375 6.6796875 9.234375 6.6796875 7 7 C5.078125 5.8203125 5.078125 5.8203125 3.25 4.125 C2.63640625 3.57070312 2.0228125 3.01640625 1.390625 2.4453125 C0 1 0 1 0 0 Z " fill="#D8BAB2" transform="translate(155,108)"/>
<path d="M0 0 C0.99 0.33 1.98 0.66 3 1 C4.2077558 4.62326739 3.54311128 5.64146369 2 9 C1.34 9 0.68 9 0 9 C0 6.03 0 3.06 0 0 Z " fill="#33322E" transform="translate(184,238)"/>
<path d="M0 0 C0.66 0.66 1.32 1.32 2 2 C1.01 2 0.02 2 -1 2 C-5.83122721 2.3088513 -5.83122721 2.3088513 -9.9375 4.5625 C-10.288125 5.036875 -10.63875 5.51125 -11 6 C-11.33 5.01 -11.66 4.02 -12 3 C-7.91526758 0.02928551 -5.0165166 -0.47325628 0 0 Z " fill="#833F3E" transform="translate(164,201)"/>
<path d="M0 0 C5.75 0.75 5.75 0.75 8 3 C7.01 4.32 6.02 5.64 5 7 C3.35 4.69 1.7 2.38 0 0 Z " fill="#8A2025" transform="translate(82,191)"/>
<path d="M0 0 C0.33 0 0.66 0 1 0 C1.66 2.64 2.32 5.28 3 8 C1.68 7.67 0.36 7.34 -1 7 C-1 6.34 -1 5.68 -1 5 C-1.99 4.67 -2.98 4.34 -4 4 C-4 3.34 -4 2.68 -4 2 C-3.01 2.33 -2.02 2.66 -1 3 C-0.67 2.01 -0.34 1.02 0 0 Z " fill="#CEA89F" transform="translate(154,100)"/>
<path d="M0 0 C0.33 0.99 0.66 1.98 1 3 C-0.32 4.32 -1.64 5.64 -3 7 C-3 6.34 -3 5.68 -3 5 C-3.66 5 -4.32 5 -5 5 C-4 2 -4 2 -1.9375 0.8125 C-1.298125 0.544375 -0.65875 0.27625 0 0 Z " fill="#C4B9AF" transform="translate(184,135)"/>
<path d="M0 0 C0.33 1.32 0.66 2.64 1 4 C-3.625 7 -3.625 7 -7 7 C-6.67 6.01 -6.34 5.02 -6 4 C-4.34795544 3.29788106 -2.68076231 2.63028587 -1 2 C-0.67 1.34 -0.34 0.68 0 0 Z " fill="#BF9E99" transform="translate(180,109)"/>
<path d="M0 0 C1.9375 0.1875 1.9375 0.1875 4 1 C5.87380446 3.49840595 6.05001932 4.63319166 5.625 7.75 C5.41875 8.4925 5.2125 9.235 5 10 C4.67 10 4.34 10 4 10 C3.731875 8.88625 3.46375 7.7725 3.1875 6.625 C2.34190981 2.78159049 2.34190981 2.78159049 -1 1 C-0.67 0.67 -0.34 0.34 0 0 Z " fill="#C29B96" transform="translate(171,99)"/>
<path d="M0 0 C0 2.97 0 5.94 0 9 C-0.99 8.67 -1.98 8.34 -3 8 C-3 5.69 -3 3.38 -3 1 C-1 0 -1 0 0 0 Z " fill="#AEABA3" transform="translate(101,238)"/>
<path d="M0 0 C0.33 0.66 0.66 1.32 1 2 C2.64363134 2.72159424 4.31050386 3.39351421 6 4 C5.67 4.66 5.34 5.32 5 6 C3.35 5.67 1.7 5.34 0 5 C0 3.35 0 1.7 0 0 Z " fill="#861B1F" transform="translate(161,101)"/>
<path d="M0 0 C0.66 0.33 1.32 0.66 2 1 C1.54625 1.5775 1.0925 2.155 0.625 2.75 C-0.84113516 4.7800333 -1.94857784 6.73539843 -3 9 C-3 7.68 -3 6.36 -3 5 C-3.66 4.67 -4.32 4.34 -5 4 C-3.35 2.68 -1.7 1.36 0 0 Z " fill="#77272A" transform="translate(230,202)"/>
<path d="M0 0 C7.42857143 -0.28571429 7.42857143 -0.28571429 11 2 C9.02 2.99 9.02 2.99 7 4 C6.67 3.34 6.34 2.68 6 2 C2.97065509 1.34227572 2.97065509 1.34227572 0 1 C0 0.67 0 0.34 0 0 Z " fill="#802E2E" transform="translate(107,201)"/>
<path d="M0 0 C0.66 0.33 1.32 0.66 2 1 C2 1.66 2 2.32 2 3 C1.071875 3.185625 1.071875 3.185625 0.125 3.375 C-2.19120832 3.87197356 -2.19120832 3.87197356 -4 6 C-4 5.34 -4 4.68 -4 4 C-4.66 3.67 -5.32 3.34 -6 3 C-4.03533587 1.93224776 -2.03144641 0.93446535 0 0 Z " fill="#AE6767" transform="translate(166,97)"/>
<path d="M0 0 C0.99 0 1.98 0 3 0 C3 1.98 3 3.96 3 6 C2.01 6 1.02 6 0 6 C0 4.02 0 2.04 0 0 Z " fill="#AFAAA4" transform="translate(81,239)"/>
<path d="M0 0 C0.639375 0.2475 1.27875 0.495 1.9375 0.75 C2.2675 1.74 2.5975 2.73 2.9375 3.75 C1.9475 4.41 0.9575 5.07 -0.0625 5.75 C-0.0625 4.76 -0.0625 3.77 -0.0625 2.75 C-1.0525 3.08 -2.0425 3.41 -3.0625 3.75 C-3.3925 2.76 -3.7225 1.77 -4.0625 0.75 C-2.0625 -0.25 -2.0625 -0.25 0 0 Z " fill="#ADA39D" transform="translate(179.0625,139.25)"/>
<path d="M0 0 C0.556875 0.226875 1.11375 0.45375 1.6875 0.6875 C0.90375 1.14125 0.12 1.595 -0.6875 2.0625 C-3.34948031 3.57178742 -3.34948031 3.57178742 -5.3125 5.6875 C-5.3125 5.0275 -5.3125 4.3675 -5.3125 3.6875 C-5.9725 3.3575 -6.6325 3.0275 -7.3125 2.6875 C-2.88173077 -0.38942308 -2.88173077 -0.38942308 0 0 Z " fill="#D8BCAA" transform="translate(149.3125,91.3125)"/>
<path d="M0 0 C0.99 0.33 1.98 0.66 3 1 C3 2.65 3 4.3 3 6 C2.01 6 1.02 6 0 6 C0 4.02 0 2.04 0 0 Z " fill="#A19D96" transform="translate(195,239)"/>
<path d="M0 0 C0.66 0 1.32 0 2 0 C2 1.98 2 3.96 2 6 C1.01 6 0.02 6 -1 6 C-1.042721 4.33388095 -1.04063832 2.66617115 -1 1 C-0.67 0.67 -0.34 0.34 0 0 Z " fill="#B4AFA9" transform="translate(139,239)"/>
<path d="M0 0 C2.88575819 0.39803561 3.82189513 0.79009069 5.75 3.0625 C6.1625 3.701875 6.575 4.34125 7 5 C4.03824877 4.38722388 2.61941217 3.74627478 0 2 C0 1.34 0 0.68 0 0 Z " fill="#C1BEB7" transform="translate(132,135)"/>
<path d="M0 0 C0 3 0 3 -1.375 4.6875 C-3 6 -3 6 -5 6 C-5.33 6.66 -5.66 7.32 -6 8 C-6 6.68 -6 5.36 -6 4 C-3 1.75 -3 1.75 0 0 Z " fill="#C0908B" transform="translate(178,116)"/>
<path d="M0 0 C-0.60183749 2.02045442 -1.27306096 4.02111039 -2 6 C-2.99 6.495 -2.99 6.495 -4 7 C-4.6875 5.1875 -4.6875 5.1875 -5 3 C-3.38441968 0.84589291 -2.74502455 0 0 0 Z " fill="#D7C1B8" transform="translate(156,97)"/>
<path d="M0 0 C2.4375 0.375 2.4375 0.375 5 1 C5.33 1.66 5.66 2.32 6 3 C4.35 3.33 2.7 3.66 1 4 C0.67 2.68 0.34 1.36 0 0 Z " fill="#D1B9B0" transform="translate(167,96)"/>
</svg>
