<?xml version="1.0" encoding="UTF-8"?>
<svg version="1.1" xmlns="http://www.w3.org/2000/svg" width="324" height="262">
<path d="M0 0 C106.92 0 213.84 0 324 0 C324 86.46 324 172.92 324 262 C217.08 262 110.16 262 0 262 C0 175.54 0 89.08 0 0 Z " fill="#F3BE1B" transform="translate(0,0)"/>
<path d="M0 0 C1.82421875 0.12109375 1.82421875 0.12109375 4 1 C6.08223964 3.5115674 7.87267476 6.1509631 9.70703125 8.84765625 C11.90843529 11.29919345 11.90843529 11.29919345 15.421875 11.65234375 C19.88156929 10.83927721 21.72778979 8.89861959 24.4375 5.5 C24.88287109 4.97535156 25.32824219 4.45070313 25.78710938 3.91015625 C26.876252 2.62192304 27.94072585 1.31290317 29 0 C30.32 0.66 31.64 1.32 33 2 C31.5140084 6.59306496 29.14985318 9.43569245 26 13 C26.763125 13.7425 27.52625 14.485 28.3125 15.25 C33.89965213 20.9670859 33.89965213 20.9670859 34.29296875 25.015625 C34.25816406 26.08296875 34.22335938 27.1503125 34.1875 28.25 C34.14689453 29.86648437 34.14689453 29.86648437 34.10546875 31.515625 C34.07066406 32.33546875 34.03585938 33.1553125 34 34 C35.175625 34.33 36.35125 34.66 37.5625 35 C54.24867726 40.6670036 69.02375187 50.90024992 77 67 C80.96286015 77.04163658 78.84028137 86.2901247 75 96 C73.08178246 99.08155701 72.51369567 99.82876811 69 101 C61.00246743 101.57599958 54.43016402 101.0224396 47 98 C46.82984375 99.09248047 46.82984375 99.09248047 46.65625 100.20703125 C43.99173501 111.54708017 33.72232995 120.3456695 25.75 128.1875 C21.988154 131.89660984 18.88282686 135.57966548 16 140 C15.26330078 139.00806641 15.26330078 139.00806641 14.51171875 137.99609375 C11.86785752 134.84237436 9.02592881 132.07017738 6.05883789 129.22583008 C-3.42131665 120.095991 -12.14880036 110.90829227 -16 98 C-16.57105469 98.2165625 -17.14210938 98.433125 -17.73046875 98.65625 C-24.63492789 101.02725664 -31.72887012 102.2512649 -39 101 C-43.96243512 97.18739741 -45.58500811 91.91264467 -47 86 C-48.2545008 74.82239787 -46.39369493 66.34306016 -39.75 57.3125 C-31.50432409 47.41768891 -20.83663537 40.33216419 -8.6875 36.0625 C-6.56288063 35.27871256 -6.56288063 35.27871256 -5 34 C-4.35280866 31.75761875 -4.31225958 29.78345781 -4.29296875 27.453125 C-3.75323837 22.93378262 -0.89115695 19.40178417 2 16 C2.99 15.34 3.98 14.68 5 14 C3.77992056 11.3094472 3.77992056 11.3094472 2 9 C1.42270142 9.63953613 1.42270142 9.63953613 0.83374023 10.29199219 C-1.3879009 12.36130404 -3.72956617 13.77565157 -6.33984375 15.328125 C-7.40396484 15.96363281 -8.46808594 16.59914063 -9.56445312 17.25390625 C-10.67755859 17.91261719 -11.79066406 18.57132813 -12.9375 19.25 C-14.55495117 20.21486328 -14.55495117 20.21486328 -16.20507812 21.19921875 C-17.28080078 21.83988281 -18.35652344 22.48054688 -19.46484375 23.140625 C-20.53879395 23.78894287 -21.61274414 24.43726074 -22.71923828 25.10522461 C-24.91850012 26.37538915 -27.16500081 27.56683071 -29.44873047 28.67797852 C-35.3401242 31.41103273 -35.3401242 31.41103273 -39.03295898 36.42236328 C-39.40616132 39.17310654 -39.4134947 41.66805934 -39.25 44.4375 C-39.24355469 45.35982422 -39.23710938 46.28214844 -39.23046875 47.23242188 C-39.20702266 49.49496947 -39.1291522 51.74143496 -39 54 C-40.9375 54.5625 -40.9375 54.5625 -43 55 C-45.94188025 52.05811975 -44.98048619 44.34827667 -45.07055664 40.43286133 C-44.83511124 33.20098836 -44.83511124 33.20098836 -42.76513672 30.22412109 C-39.35244265 27.27080789 -35.28635738 25.61218329 -31.13867188 23.92871094 C-27.61560175 22.3988298 -24.43769541 20.34481282 -21.1875 18.3125 C-19.94678248 17.56655994 -18.70463021 16.8230002 -17.4609375 16.08203125 C-15.29033759 14.78050753 -13.13135167 13.46467022 -10.9765625 12.13671875 C-10.09742188 11.59660156 -9.21828125 11.05648437 -8.3125 10.5 C-7.56613281 10.0359375 -6.81976563 9.571875 -6.05078125 9.09375 C-4.02788079 8.01486976 -2.24036868 7.44503938 0 7 C-0.185625 6.030625 -0.37125 5.06125 -0.5625 4.0625 C-0.706875 3.051875 -0.85125 2.04125 -1 1 C-0.67 0.67 -0.34 0.34 0 0 Z " fill="#073244" transform="translate(145,61)"/>
<path d="M0 0 C3.0625 0.1875 3.0625 0.1875 5.0625 2.1875 C4.6875 5.8125 4.6875 5.8125 4.0625 9.1875 C3.38735352 9.33300293 2.71220703 9.47850586 2.01660156 9.62841797 C-5.30750492 11.38889827 -10.92457862 14.19235982 -17.1875 18.3125 C-19.02939239 19.4891513 -20.87184323 20.66492889 -22.71484375 21.83984375 C-24.05071533 22.70005127 -24.05071533 22.70005127 -25.41357422 23.57763672 C-28.81744885 25.74876744 -32.27479769 27.82072333 -35.75 29.875 C-39.64676895 32.18808415 -43.51356631 34.53881179 -47.34375 36.9609375 C-48.07875732 37.42540283 -48.81376465 37.88986816 -49.57104492 38.3684082 C-50.99567979 39.2717145 -52.41783408 40.17894806 -53.8371582 41.09057617 C-58.71908453 44.1875 -58.71908453 44.1875 -60.9375 44.1875 C-60.9375 62.6675 -60.9375 81.1475 -60.9375 100.1875 C-59.2875 100.8475 -57.6375 101.5075 -55.9375 102.1875 C-54.2545608 103.15986487 -52.58306566 104.15314444 -50.9375 105.1875 C-51.05695123 101.07968356 -51.18125962 96.97204382 -51.30981445 92.86450195 C-51.35277354 91.47098651 -51.39447055 90.0774315 -51.43481445 88.68383789 C-50.72447545 75.4949471 -50.72447545 75.4949471 -54.9375 64.1875 C-55.25 60.6875 -55.25 60.6875 -54.9375 57.1875 C-51.9375 55.1875 -51.9375 55.1875 -48.875 55.4375 C-45.9375 56.1875 -45.9375 56.1875 -43.9375 58.1875 C-44.51442308 64.76442308 -44.51442308 64.76442308 -45.9375 66.1875 C-46.09477202 68.23491355 -46.18169584 70.28775668 -46.24145508 72.34033203 C-46.28011185 73.65905304 -46.31876862 74.97777405 -46.3585968 76.3364563 C-46.48430048 81.59511992 -46.57452246 86.85436177 -46.64137745 92.11409187 C-46.69274612 96.10741727 -46.76711669 100.09728014 -46.89770508 104.08886719 C-47.02348258 107.94834502 -47.08976639 111.80470218 -47.11496544 115.66610336 C-47.13454972 117.1344429 -47.17490984 118.60266378 -47.23682594 120.06982803 C-47.42073385 124.64179002 -47.38850619 128.78787529 -45.9375 133.1875 C-42.32803521 136.56610966 -38.46917336 138.31624153 -33.9375 140.1875 C-32.08783064 141.17607016 -30.24723357 142.18207379 -28.421875 143.21484375 C-27.52146484 143.70194824 -26.62105469 144.18905273 -25.69335938 144.69091797 C-21.85993035 146.77267912 -18.05367007 148.90149854 -14.24975586 151.03662109 C-12.14606743 152.21366689 -10.03719302 153.38147697 -7.92407227 154.54150391 C-2.38934254 157.59735074 2.98722658 160.74549761 8.23828125 164.26953125 C17.06030215 170.59587829 17.06030215 170.59587829 27.27392578 173.14990234 C31.76677991 172.02104992 35.2555054 169.47751107 38.91210938 166.72412109 C42.16995814 164.39613516 45.65845624 162.53177817 49.15966797 160.59741211 C55.31013089 157.19892728 61.35635773 153.62188259 67.375 149.99609375 C70.61017188 148.04829149 73.85550785 146.15394496 77.1875 144.375 C80.56380304 142.55848115 83.91656949 140.70914408 87.24609375 138.80859375 C87.96974121 138.39649658 88.69338867 137.98439941 89.43896484 137.55981445 C90.88005155 136.73755491 92.3192323 135.91194466 93.75634766 135.08276367 C98.84092533 132.1875 98.84092533 132.1875 101.0625 132.1875 C101.0625 109.7475 101.0625 87.3075 101.0625 64.1875 C102.3825 64.5175 103.7025 64.8475 105.0625 65.1875 C105.04393951 65.77916962 105.02537903 66.37083923 105.0062561 66.98043823 C104.82582522 73.17859922 104.74523258 79.37254681 104.72070312 85.57324219 C104.69873448 87.88188843 104.65191108 90.19044447 104.57910156 92.49804688 C103.60496327 104.85465437 103.60496327 104.85465437 107.48919678 116.07476807 C110.38593205 118.59277787 113.57224194 120.32529419 116.93212891 122.14404297 C120.0625 124.1875 120.0625 124.1875 121.21240234 126.88330078 C121.43349019 129.80811906 121.30906644 132.40529884 120.9375 135.3125 C120.87433594 136.26898438 120.81117188 137.22546875 120.74609375 138.2109375 C120.58237379 140.549794 120.35457748 142.86179292 120.0625 145.1875 C119.22589844 145.66058594 118.38929688 146.13367188 117.52734375 146.62109375 C114.38873621 148.4005945 111.2598845 150.19667009 108.13378906 151.99804688 C106.75013118 152.79262269 105.36404098 153.5829775 103.97558594 154.36914062 C101.9351044 155.52608502 99.90446592 156.69886346 97.875 157.875 C97.24005615 158.23070068 96.6051123 158.58640137 95.95092773 158.95288086 C92.11757886 161.19983775 90.03468711 163.2092394 88.0625 167.1875 C87.0625 168.1875 87.0625 168.1875 84.6875 168.4375 C82.0625 168.1875 82.0625 168.1875 80.1875 167 C79.0625 165.1875 79.0625 165.1875 79.25 162.625 C80.0625 160.1875 80.0625 160.1875 82.0625 158.1875 C82.98603271 158.20272705 83.90956543 158.2179541 84.86108398 158.23364258 C88.55576408 158.1803905 90.16233495 157.36101259 93.28515625 155.44921875 C94.23583984 154.87623047 95.18652344 154.30324219 96.16601562 153.71289062 C97.14248047 153.10638672 98.11894531 152.49988281 99.125 151.875 C100.10533203 151.28009766 101.08566406 150.68519531 102.09570312 150.07226562 C103.92425689 148.9612299 105.74960059 147.84488038 107.57055664 146.72143555 C109.2919614 145.66181116 111.04803732 144.65723429 112.828125 143.69946289 C115.42627681 142.30286821 115.42627681 142.30286821 115.90234375 138.859375 C116.33122583 131.18706631 116.33122583 131.18706631 112.81640625 124.64453125 C110.29699034 122.91131605 107.83961864 121.46199909 105.0625 120.1875 C105.16691406 121.12851563 105.27132812 122.06953125 105.37890625 123.0390625 C106.02140856 132.89076458 106.02140856 132.89076458 103.62109375 136.13671875 C101.1887977 137.74748027 98.70463907 138.94634072 96.0625 140.1875 C94.76324856 140.91202374 93.47069824 141.64864185 92.18359375 142.39453125 C85.5798142 146.21813816 78.90816316 149.81427467 72.0625 153.1875 C72.04832031 154.44046875 72.03414062 155.6934375 72.01953125 156.984375 C71.97262562 158.63545328 71.92437825 160.28649382 71.875 161.9375 C71.86629883 163.175 71.86629883 163.175 71.85742188 164.4375 C71.63445848 170.58138018 71.63445848 170.58138018 68.7734375 173.61328125 C67.87882813 174.13277344 66.98421875 174.65226563 66.0625 175.1875 C65.34707031 175.61933594 64.63164062 176.05117187 63.89453125 176.49609375 C63.22808594 176.86863281 62.56164062 177.24117187 61.875 177.625 C58.41518265 179.72421502 57.23654456 181.23844103 56.0625 185.1875 C53.0625 187.1875 53.0625 187.1875 50.5 186.9375 C48.0625 186.1875 48.0625 186.1875 46.0625 184.1875 C45.70226378 181.37765752 45.67917398 179.80508081 47.1875 177.375 C49.0625 176.1875 49.0625 176.1875 51.81640625 176.28125 C55.58168738 176.17250542 57.60830124 175.34561777 60.875 173.5 C62.30779297 172.75169922 62.30779297 172.75169922 63.76953125 171.98828125 C67.52483165 167.40131296 66.98471838 161.94386216 67.0625 156.1875 C63.43604394 158.19381399 59.8106149 160.20196906 56.18603516 162.21166992 C54.95876129 162.89183616 53.7312316 163.57154105 52.50341797 164.25073242 C51.31083306 164.9105122 50.11865339 165.57102498 48.92687988 166.23226929 C47.7336133 166.89387457 46.5391877 167.55339365 45.34362793 168.21084595 C42.41832664 169.82961324 39.57132757 171.49697328 36.74023438 173.28076172 C29.03005713 178.12066555 29.03005713 178.12066555 24.38671875 178.44140625 C19.918348 176.7559221 15.961613 174.58335622 11.875 172.125 C10.00298556 171.02669343 8.1305682 169.92907341 6.2578125 168.83203125 C5.25911133 168.24244629 4.26041016 167.65286133 3.23144531 167.04541016 C-1.80863973 164.09047586 -6.89181042 161.21136555 -11.97097778 158.32437134 C-22.73773823 152.20045889 -33.45786708 146.00112565 -44.12426758 139.70361328 C-49.31092149 136.6559792 -54.52114344 133.80667711 -59.9375 131.1875 C-59.9375 134.8175 -59.9375 138.4475 -59.9375 142.1875 C-58.2875 142.8475 -56.6375 143.5075 -54.9375 144.1875 C-53.40379285 144.96199553 -51.88309155 145.76267517 -50.375 146.5859375 C-49.50528564 147.0598291 -48.63557129 147.5337207 -47.73950195 148.02197266 C-46.81484131 148.53034668 -45.89018066 149.0387207 -44.9375 149.5625 C-43.9786792 150.08763184 -43.0198584 150.61276367 -42.03198242 151.15380859 C-16.1327634 165.39065773 -16.1327634 165.39065773 -8.9375 170.1875 C-6.62089835 170.55088849 -4.33509253 170.69012118 -1.99609375 170.84375 C0.0625 171.1875 0.0625 171.1875 2.0625 173.1875 C2.3125 176.1875 2.3125 176.1875 2.0625 179.1875 C1.4025 179.8475 0.7425 180.5075 0.0625 181.1875 C-3.5625 180.8125 -3.5625 180.8125 -6.9375 180.1875 C-7.4325 177.7125 -7.4325 177.7125 -7.9375 175.1875 C-8.71609375 174.97609375 -9.4946875 174.7646875 -10.296875 174.546875 C-15.24845172 172.69800301 -19.63024153 170.09536056 -24.1875 167.4375 C-25.07824219 166.92445313 -25.96898437 166.41140625 -26.88671875 165.8828125 C-31.3711771 163.29237067 -35.82721005 160.65938109 -40.26171875 157.984375 C-43.62938316 155.9559492 -47.01939549 154.01767702 -50.5 152.1875 C-51.85738281 151.42373047 -51.85738281 151.42373047 -53.2421875 150.64453125 C-55.89307844 149.15131906 -55.89307844 149.15131906 -58.6328125 148.07421875 C-61.51190477 146.68882482 -63.05015437 145.789955 -64.9375 143.1875 C-66.18995583 137.62246428 -65.85644395 131.77185168 -64.9375 126.1875 C-63.4525 125.1975 -63.4525 125.1975 -61.9375 124.1875 C-58.3075 126.1675 -54.6775 128.1475 -50.9375 130.1875 C-50.9375 123.5875 -50.9375 116.9875 -50.9375 110.1875 C-52.5875 109.5275 -54.2375 108.8675 -55.9375 108.1875 C-59.57843574 106.69563843 -62.3263271 105.1760139 -64.9375 102.1875 C-66.23975781 97.32174175 -66.11130001 92.49919517 -66 87.5 C-65.99568127 86.07430639 -65.99482696 84.64859837 -65.99731445 83.22290039 C-65.99782123 81.03801151 -65.99203264 78.85410507 -65.96617126 76.6693573 C-65.90969732 71.86505504 -66.05317112 67.11787895 -66.3203125 62.3203125 C-66.37179443 61.10432373 -66.42327637 59.88833496 -66.47631836 58.63549805 C-66.57316782 56.34880125 -66.70258839 54.06317853 -66.86938477 51.78051758 C-67.05763638 44.40416288 -67.05763638 44.40416288 -64.02514648 41.11035156 C-61.41678277 39.2363666 -58.7691398 37.7010004 -55.9375 36.1875 C-54.25162298 35.16782805 -52.56798825 34.14443874 -50.88671875 33.1171875 C-49.13481391 32.09551867 -47.38083836 31.0773938 -45.625 30.0625 C-37.83588898 25.5106045 -30.10501638 20.879091 -22.4375 16.125 C-21.57213623 15.5892334 -20.70677246 15.0534668 -19.81518555 14.50146484 C-16.32294727 12.33015716 -12.85571459 10.14903494 -9.46875 7.81640625 C-6.9375 6.1875 -6.9375 6.1875 -4.9375 6.1875 C-4.793125 5.383125 -4.64875 4.57875 -4.5 3.75 C-3.72907895 0.23802632 -3.72907895 0.23802632 0 0 Z " fill="#11363E" transform="translate(134.9375,31.8125)"/>
<path d="M0 0 C5.62358277 0 5.62358277 0 8.9765625 2.203125 C9.7197876 2.68273682 10.4630127 3.16234863 11.22875977 3.65649414 C12.41489868 4.44527954 12.41489868 4.44527954 13.625 5.25 C15.33447225 6.35832463 17.04411235 7.46639039 18.75390625 8.57421875 C19.62547363 9.14446777 20.49704102 9.7147168 21.39501953 10.30224609 C25.42558634 12.92910285 29.49293036 15.49664479 33.5625 18.0625 C34.34044922 18.55476074 35.11839844 19.04702148 35.91992188 19.55419922 C41.45512738 23.04981678 47.03057201 26.47513894 52.625 29.875 C68.56087284 39.56087284 68.56087284 39.56087284 71 42 C71.13567989 45.07750997 71.21066713 48.13570128 71.24609375 51.21484375 C71.27902729 53.11654115 71.31223902 55.01823374 71.34570312 56.91992188 C71.39318853 59.93315366 71.4376153 62.94636527 71.47680664 65.9597168 C71.51640441 68.85746769 71.56797585 71.75481368 71.62109375 74.65234375 C71.6295079 75.55758286 71.63792206 76.46282196 71.64659119 77.39549255 C71.66323318 78.23298538 71.67987518 79.07047821 71.69702148 79.93334961 C71.71248268 81.0413517 71.71248268 81.0413517 71.72825623 82.17173767 C71.85147601 84.2484522 71.85147601 84.2484522 74 86 C73.67028521 89.29714793 73.3773161 90.6226839 71 93 C68.5 93.25 68.5 93.25 66 93 C64 91 64 91 63.8125 87.9375 C64 85 64 85 65 84 C65.1603556 80.97192956 65.25960448 77.96414546 65.31640625 74.93359375 C65.3475779 73.57065941 65.3475779 73.57065941 65.37937927 72.18019104 C65.44497672 69.26604054 65.5038068 66.35179696 65.5625 63.4375 C65.60567554 61.46678709 65.64928951 59.49608374 65.69335938 57.52539062 C65.80066843 52.68369012 65.90190675 47.84189563 66 43 C65.27449951 42.73010254 64.54899902 42.46020508 63.80151367 42.18212891 C61.0499213 41.02106483 58.69519055 39.68373336 56.17578125 38.0859375 C55.24169434 37.49723877 54.30760742 36.90854004 53.34521484 36.30200195 C52.34441895 35.66609131 51.34362305 35.03018066 50.3125 34.375 C48.16593069 33.02123737 46.01877348 31.66840657 43.87109375 30.31640625 C43.31560852 29.96625961 42.76012329 29.61611298 42.18780518 29.25535583 C34.68443028 24.53152265 27.11798818 19.90978927 19.5559082 15.28076172 C18.52425537 14.64799316 17.49260254 14.01522461 16.4296875 13.36328125 C15.52460449 12.80938721 14.61952148 12.25549316 13.68701172 11.68481445 C10.75510238 9.8464439 7.87938679 7.9195912 5 6 C5 16.23 5 26.46 5 37 C8.465 38.98 8.465 38.98 12 41 C12 35.39 12 29.78 12 24 C16 23 16 23 18.07128906 23.88037109 C18.79541992 24.34008301 19.51955078 24.79979492 20.265625 25.2734375 C21.07386719 25.7684375 21.88210937 26.2634375 22.71484375 26.7734375 C24.39025303 27.83186247 26.06474998 28.89173311 27.73828125 29.953125 C33.04096027 33.19691914 36.8195693 34.51929983 43 35 C45 37 45 37 45.3125 40 C45.209375 40.99 45.10625 41.98 45 43 C42 45 42 45 39.3125 44.625 C38.549375 44.41875 37.78625 44.2125 37 44 C36.67 42.35 36.34 40.7 36 39 C35.16210938 38.75507812 34.32421875 38.51015625 33.4609375 38.2578125 C29.55573153 36.838539 26.19028729 34.98142234 22.625 32.875 C21.98433594 32.50246094 21.34367187 32.12992188 20.68359375 31.74609375 C19.11951523 30.83565998 17.55934466 29.91851809 16 29 C15.47213733 34.07149075 15.00690227 39.2076077 17 44 C20.09840786 47.33020364 24.12311359 49.20862515 28.16796875 51.16796875 C28.81088867 51.48008301 29.45380859 51.79219727 30.11621094 52.11376953 C31.88322854 52.94506475 33.67351393 53.72638429 35.46484375 54.50390625 C38.48060127 57.47319601 38.41735853 58.32272634 38.5859375 62.421875 C38.54612295 64.53204597 38.47466 66.64180774 38.375 68.75 C38.33439453 70.36841797 38.33439453 70.36841797 38.29296875 72.01953125 C38.22229142 74.68171065 38.12368401 77.33984236 38 80 C36.68 80 35.36 80 34 80 C34 73.07 34 66.14 34 59 C32.02 58.34 30.04 57.68 28 57 C25.9872452 55.87036507 24.00912333 54.67762683 22.0625 53.4375 C20.92769202 52.72169036 19.79224806 52.00688821 18.65625 51.29296875 C18.06457031 50.91962402 17.47289062 50.5462793 16.86328125 50.16162109 C13.01348309 47.76155039 9.1032875 45.46033718 5.20141602 43.14624023 C3.46102561 42.10845803 1.7303389 41.05445624 0 40 C-0.58539551 39.65388672 -1.17079102 39.30777344 -1.77392578 38.95117188 C-3.44140625 37.921875 -3.44140625 37.921875 -6 36 C-6 35.01 -6 34.02 -6 33 C-4.02 33.33 -2.04 33.66 0 34 C0 22.78 0 11.56 0 0 Z " fill="#12373E" transform="translate(182,36)"/>
<path d="M0 0 C2.475 1.98 2.475 1.98 5 4 C3.43754389 7.83511953 0.89634216 10.10365784 -2 13 C-4.18286938 16.62295682 -4.38099469 19.83397014 -4.65625 23.9765625 C-5 26 -5 26 -7 28 C-8.44094514 28.60565622 -9.90322081 29.16118414 -11.375 29.6875 C-20.85041685 33.39289389 -28.93763194 38.43064475 -36.2578125 45.49609375 C-38 47 -38 47 -40 47 C-42.35775049 29.32049861 -42.35775049 29.32049861 -38.76953125 24.26708984 C-35.34322324 21.34521051 -31.27570883 19.66106803 -27.14746094 17.94921875 C-23.58999132 16.37674923 -20.35848203 14.30223894 -17.0625 12.25 C-15.8213838 11.50472346 -14.57923557 10.7611622 -13.3359375 10.01953125 C-10.59486476 8.36012304 -7.88506331 6.66608299 -5.1875 4.9375 C-2 3 -2 3 0 3 C0 2.01 0 1.02 0 0 Z " fill="#F8BF10" transform="translate(146,69)"/>
<path d="M0 0 C3.18391736 0.14958001 4.14860231 1.15101077 6.41015625 3.44921875 C7.30432587 4.52033131 8.18781034 5.60042161 9.0625 6.6875 C9.54074219 7.26693359 10.01898438 7.84636719 10.51171875 8.44335938 C14.37429239 13.15023903 18.1264591 17.94544853 21.86230469 22.75317383 C25.08108735 26.88118792 28.41013671 30.89735229 31.8125 34.875 C43 47.96278324 43 47.96278324 43 50 C33.08249574 50.64679376 25.47944746 47.39378121 17.67578125 41.3671875 C6.9644932 31.89121588 -0.15430756 20.24028529 -1.1484375 5.8515625 C-1.1875 3.9375 -1.1875 3.9375 -1 1 C-0.67 0.67 -0.34 0.34 0 0 Z " fill="#F1F6F8" transform="translate(166,106)"/>
<path d="M0 0 C1.32 0.33 2.64 0.66 4 1 C4.39444996 7.99783447 3.73585092 13.54250573 1 20 C0.67128906 20.80308594 0.34257812 21.60617188 0.00390625 22.43359375 C-5.0372731 33.61489467 -14.2002347 43.31147562 -25.609375 48.09375 C-30.51406471 49.69892118 -34.85809688 50.33534151 -40 50 C-36.37811076 45.00766618 -32.56529984 40.24978338 -28.5625 35.5625 C-24.8402814 31.20318419 -21.22758555 26.79488447 -17.7421875 22.2421875 C-15.70685368 19.622722 -13.60754218 17.06169268 -11.5 14.5 C-7.57938064 9.73204266 -3.75945614 4.89575479 0 0 Z " fill="#F2F8FA" transform="translate(152,106)"/>
<path d="M0 0 C1.17175781 -0.0309375 2.34351563 -0.061875 3.55078125 -0.09375 C9.88688823 -0.03686015 13.74681634 0.55791996 18.53125 4.875 C19.51448242 5.92300781 19.51448242 5.92300781 20.51757812 6.9921875 C22.65546693 9.15745814 24.87916042 10.48159511 27.5 12 C27.5 12.33 27.5 12.66 27.5 13 C9.35 13 -8.8 13 -27.5 13 C-25.85 11.68 -24.2 10.36 -22.5 9 C-21.84580078 8.30519531 -21.19160156 7.61039063 -20.51757812 6.89453125 C-14.22155665 0.29516164 -8.86981556 -0.23418655 0 0 Z " fill="#F4BC11" transform="translate(160.5,144)"/>
<path d="M0 0 C0.02578125 1.26457031 0.0515625 2.52914062 0.078125 3.83203125 C0.13440266 5.49222218 0.19175007 7.1523771 0.25 8.8125 C0.26417969 9.64587891 0.27835938 10.47925781 0.29296875 11.33789062 C0.38495204 13.62827465 0.50654085 15.76067328 1 18 C2.91929861 19.91091022 2.91929861 19.91091022 5 21 C5 21.99 5 22.98 5 24 C4.40832031 23.91621094 3.81664062 23.83242187 3.20703125 23.74609375 C-1.09939457 23.19110576 -4.75552644 22.76773348 -9 24 C-9 22.68 -9 21.36 -9 20 C-7.35 19.34 -5.7 18.68 -4 18 C-4 14.04 -4 10.08 -4 6 C-8.31581687 8.28546389 -12.62786523 10.57790735 -16.9375 12.875 C-17.89231766 13.38355026 -17.89231766 13.38355026 -18.86642456 13.90237427 C-27.41125069 18.45991209 -35.87140176 23.10818289 -44.11108398 28.20458984 C-48.69495548 31 -48.69495548 31 -52 31 C-51.938125 32.175625 -51.938125 32.175625 -51.875 33.375 C-52 36 -52 36 -54 38 C-57 38.25 -57 38.25 -60 38 C-62 36 -62 36 -62.25 33 C-62 30 -62 30 -60 28 C-58.76121094 27.7834375 -57.52242188 27.566875 -56.24609375 27.34375 C-49.20560474 25.89320405 -43.23252118 22.02623879 -37.0625 18.5 C-35.77224468 17.77483237 -34.48130462 17.05088176 -33.18969727 16.328125 C-28.43565629 13.66312527 -23.69882244 10.96825775 -18.96386719 8.26953125 C-17.22347307 7.27787504 -15.48166256 6.28869788 -13.73803711 5.30273438 C-12.24700729 4.45840294 -10.76050232 3.60601017 -9.27954102 2.74414062 C-5.82062512 0.78010365 -4.07788586 0 0 0 Z " fill="#10363E" transform="translate(163,42)"/>
<path d="M0 0 C0.84820312 0.14308594 1.69640625 0.28617188 2.5703125 0.43359375 C6.00192112 1.00031727 9.43696464 1.5362701 12.875 2.0625 C14.02742188 2.23910156 15.17984375 2.41570312 16.3671875 2.59765625 C17.23601562 2.73042969 18.10484375 2.86320313 19 3 C19.495 5.475 19.495 5.475 20 8 C19.49662109 8.30703857 18.99324219 8.61407715 18.47460938 8.93041992 C16.14946766 10.34900146 13.82473214 11.76824738 11.5 13.1875 C10.70851562 13.67025391 9.91703125 14.15300781 9.1015625 14.65039062 C8.31523437 15.13056641 7.52890625 15.61074219 6.71875 16.10546875 C5.93113281 16.58290527 5.14351562 17.0603418 4.33203125 17.55224609 C2.7896898 18.50975078 1.26536528 19.49696821 -0.23828125 20.51416016 C-1.28048828 21.2129126 -1.28048828 21.2129126 -2.34375 21.92578125 C-2.95412109 22.34899658 -3.56449219 22.77221191 -4.19335938 23.20825195 C-6.52434871 24.22979228 -7.63152617 23.78634063 -10 23 C-12.07675859 22.78413862 -12.07675859 22.78413862 -13.51220703 24.28515625 C-14.08825684 24.87167969 -14.66430664 25.45820313 -15.2578125 26.0625 C-15.88300781 26.69414062 -16.50820312 27.32578125 -17.15234375 27.9765625 C-17.80332031 28.64429688 -18.45429688 29.31203125 -19.125 30 C-19.78371094 30.66773438 -20.44242188 31.33546875 -21.12109375 32.0234375 C-22.75194324 33.67792249 -24.3779585 35.33688616 -26 37 C-26 34 -26 34 -24.65820312 32.39697266 C-23.72911133 31.53918213 -23.72911133 31.53918213 -22.78125 30.6640625 C-22.09949707 30.01800049 -21.41774414 29.37193848 -20.71533203 28.70629883 C-19.98427246 28.01947021 -19.25321289 27.3326416 -18.5 26.625 C-10.28027436 18.67745669 -4.07164349 10.81159705 0 0 Z " fill="#ECB713" transform="translate(192,159)"/>
<path d="M0 0 C2.125 0.375 2.125 0.375 4 1 C4.39444996 7.99783447 3.73585092 13.54250573 1 20 C0.67128906 20.80308594 0.34257812 21.60617188 0.00390625 22.43359375 C-5.0372731 33.61489467 -14.2002347 43.31147562 -25.609375 48.09375 C-30.51406471 49.69892118 -34.85809688 50.33534151 -40 50 C-37.77388848 47.77388848 -36.94656531 47.71932426 -34 47 C-20.15783655 40.31332211 -11.24636425 29.79321327 -4.125 16.5 C-2.81137392 12.41316331 -2.5030949 8.62860017 -2.30859375 4.35546875 C-2 2 -2 2 0 0 Z " fill="#28C3F9" transform="translate(152,106)"/>
<path d="M0 0 C13.53 0 27.06 0 41 0 C38.57583492 4.84833016 35.63268821 7.68365589 30.7578125 10.12109375 C24.60052266 12.08340284 16.56298699 12.25593944 10.41796875 10.08984375 C5.80226578 7.34513319 3.61207437 4.33448925 0 0 Z " fill="#F9BF10" transform="translate(140,170)"/>
<path d="M0 0 C0.66 0.66 1.32 1.32 2 2 C0.57457155 6.27628534 -2.56646056 7.34330344 -6.3125 9.4375 C-7.85221606 10.31917213 -9.39124871 11.20203853 -10.9296875 12.0859375 C-11.74791992 12.55354492 -12.56615234 13.02115234 -13.40917969 13.50292969 C-17.95450935 16.12938667 -22.44321582 18.8499324 -26.9375 21.5625 C-28.63367807 22.58535963 -30.33026035 23.60754942 -32.02734375 24.62890625 C-33.10616821 25.2796814 -33.10616821 25.2796814 -34.20678711 25.94360352 C-35.44599641 26.67363192 -36.71358446 27.35679223 -38 28 C-38.33 34.6 -38.66 41.2 -39 48 C-40.98 48.495 -40.98 48.495 -43 49 C-45.94188025 46.05811975 -44.98048619 38.34827667 -45.07055664 34.43286133 C-44.83511124 27.20098836 -44.83511124 27.20098836 -42.76513672 24.22412109 C-39.35244265 21.27080789 -35.28635738 19.61218329 -31.13867188 17.92871094 C-27.61566343 16.39885659 -24.43746825 14.34508884 -21.1875 12.3125 C-19.94684766 11.5651539 -18.70469691 10.82028868 -17.4609375 10.078125 C-15.29701632 8.78001048 -13.13595013 7.47755124 -10.9765625 6.171875 C-10.09742188 5.64078125 -9.21828125 5.1096875 -8.3125 4.5625 C-7.19294922 3.88380859 -7.19294922 3.88380859 -6.05078125 3.19140625 C-4.06927583 2.04024596 -2.06114186 1.00032844 0 0 Z " fill="#1A3C3C" transform="translate(145,67)"/>
<path d="M0 0 C2.8992226 0.46761655 3.86675182 0.86675182 6 3 C6.4921875 5.25 6.4921875 5.25 6.875 8 C9.32187148 22.34501754 16.91900841 34.61329008 28 44 C30.29397017 45.55737425 32.50275231 46.77794262 35 48 C31.5175637 49.1684996 31.00866558 49.00352498 27.3125 47.5 C15.25001487 40.92046266 5.95649735 30.90294654 1 18 C-0.61588005 12.35710997 -1.37396566 6.85879529 -1 1 C-0.67 0.67 -0.34 0.34 0 0 Z " fill="#29C1F6" transform="translate(166,106)"/>
<path d="M0 0 C1.02738281 0.27714844 2.05476562 0.55429688 3.11328125 0.83984375 C4.51252073 1.20763707 5.9122996 1.57338206 7.3125 1.9375 C8.03928955 2.12787842 8.7660791 2.31825684 9.51489258 2.5144043 C13.79821865 3.59102793 17.75135824 4.20311568 22.1875 4.3125 C25.05667495 4.49371105 26.49184425 4.59302067 28.74609375 6.3984375 C31.59810749 10.09878394 32.35920505 13.37712215 33 18 C32.11699219 17.66226563 31.23398438 17.32453125 30.32421875 16.9765625 C29.12410156 16.53054687 27.92398438 16.08453125 26.6875 15.625 C26.05247559 15.3887793 25.41745117 15.15255859 24.76318359 14.90917969 C20.85588971 13.50776754 17.27554148 12.68198322 13.125 12.25 C7.43150573 11.40651937 4.89073145 8.4482777 1.36328125 4.09375 C0 2 0 2 0 0 Z " fill="#2CBEF1" transform="translate(184,116)"/>
<path d="M0 0 C-2.5562904 4.51766231 -4.85847852 8.35754356 -10.0078125 9.90234375 C-12.23219949 10.17842015 -14.46221753 10.41207138 -16.6953125 10.60546875 C-20.87285992 11.10420668 -24.26116835 12.48536846 -28.07421875 14.1953125 C-30 15 -30 15 -32 15 C-31.7014436 10.82021044 -30.81954416 7.44211976 -27.9765625 4.25 C-24.21112896 1.86869816 -19.80741676 1.81296537 -15.45703125 1.37109375 C-12.61158508 1.06565038 -10.11111197 0.60087125 -7.375 -0.1875 C-4.10319657 -0.97515638 -3.05566359 -0.94071739 0 0 Z " fill="#E3F3F8" transform="translate(137,118)"/>
<path d="M0 0 C0.44730469 0.85722656 0.89460938 1.71445313 1.35546875 2.59765625 C5.27135323 10.11025886 5.27135323 10.11025886 10 17.125 C10.66 18.07375 11.32 19.0225 12 20 C11.67 20.99 11.34 21.98 11 23 C10.67 22.01 10.34 21.02 10 20 C8.00092742 19.33055749 6.00067488 18.66463861 4 18 C1.07355952 16.32764563 -1.70584084 14.44573381 -4.5 12.5625 C-9.22424481 9.40331696 -13.83388186 6.41140008 -19 4 C-19 3.67 -19 3.34 -19 3 C-17.66195312 2.80083984 -17.66195312 2.80083984 -16.296875 2.59765625 C-15.12640625 2.42105469 -13.9559375 2.24445313 -12.75 2.0625 C-11.00976562 1.80146484 -11.00976562 1.80146484 -9.234375 1.53515625 C-6.14484873 1.02396652 -3.12604494 0 0 0 Z " fill="#EFB912" transform="translate(129,159)"/>
<path d="M0 0 C-0.72445312 0.845625 -1.44890625 1.69125 -2.1953125 2.5625 C-3.17243635 3.70785468 -4.14895964 4.85372187 -5.125 6 C-5.62765381 6.58998779 -6.13030762 7.17997559 -6.64819336 7.7878418 C-9.90883865 11.64027867 -12.9970445 15.55954476 -15.87890625 19.70703125 C-16.24886719 20.13371094 -16.61882812 20.56039062 -17 21 C-17.66 21 -18.32 21 -19 21 C-21.28460042 16.57358669 -22.28217591 11.86342587 -21 7 C-16.36764561 2.01131066 -6.61672413 -2.17576965 0 0 Z " fill="#EDF4F6" transform="translate(125,133)"/>
<path d="M0 0 C7.65216139 1.37485642 14.49921119 3.66614079 21 8 C21.65423391 13.56098826 20.38864199 17.12318926 18 22 C14.03047983 18.13339332 10.35989674 14.07769841 6.75 9.875 C6.20859375 9.25496094 5.6671875 8.63492188 5.109375 7.99609375 C4.3359375 7.09697266 4.3359375 7.09697266 3.546875 6.1796875 C3.08120117 5.64069824 2.61552734 5.10170898 2.13574219 4.54638672 C1 3 1 3 0 0 Z " fill="#EBF2F5" transform="translate(197,132)"/>
<path d="M0 0 C5.25219029 0.56448774 9.24542537 2.31133575 13.875 4.6875 C14.57882813 5.04328125 15.28265625 5.3990625 16.0078125 5.765625 C21.09412489 8.39355307 25.5913627 11.32613558 30 15 C25.96702441 16.59660216 22.33730195 15.41777473 18.3125 14.375 C17.60005127 14.19332275 16.88760254 14.01164551 16.15356445 13.82446289 C9.16186187 11.93990908 3.03334574 9.3430901 -2 4 C-1.34 2.68 -0.68 1.36 0 0 Z " fill="#29BBEE" transform="translate(175,100)"/>
<path d="M0 0 C0.33 1.32 0.66 2.64 1 4 C-7.55630497 11.28295287 -16.91432117 13.78378995 -28 14 C-21.38839809 6.20775489 -10.35020305 -0.48140479 0 0 Z " fill="#38C4F4" transform="translate(146,101)"/>
<path d="M0 0 C0 1.32 0 2.64 0 4 C-1.52539062 5.38452148 -1.52539062 5.38452148 -3.65625 6.62109375 C-4.43226563 7.08193359 -5.20828125 7.54277344 -6.0078125 8.01757812 C-7.24144531 8.72043945 -7.24144531 8.72043945 -8.5 9.4375 C-10.09394818 10.37336046 -11.6876995 11.30955629 -13.28125 12.24609375 C-14.06886719 12.69839355 -14.85648438 13.15069336 -15.66796875 13.61669922 C-18.59555045 15.35326516 -21.40138099 17.25325937 -24.19335938 19.19946289 C-26.50339294 20.22305749 -27.66712247 19.83046068 -30 19 C-28.82163374 15.46490122 -28.06883537 15.12571344 -24.9921875 13.22265625 C-24.16976562 12.70896484 -23.34734375 12.19527344 -22.5 11.66601562 C-21.63375 11.13685547 -20.7675 10.60769531 -19.875 10.0625 C-19.03195313 9.53720703 -18.18890625 9.01191406 -17.3203125 8.47070312 C-14.89024597 6.96323173 -12.44836199 5.47753056 -10 4 C-9.31583008 3.58089355 -8.63166016 3.16178711 -7.92675781 2.72998047 C-3.35635458 0 -3.35635458 0 0 0 Z " fill="#12373E" transform="translate(212,163)"/>
<path d="M0 0 C3.12669546 0.50133561 5.41626216 1.69807227 8.08203125 3.36328125 C8.84966797 3.83830078 9.61730469 4.31332031 10.40820312 4.80273438 C11.20162109 5.30095703 11.99503906 5.79917969 12.8125 6.3125 C14.38091453 7.28871844 15.94991711 8.26399278 17.51953125 9.23828125 C18.27186035 9.70572754 19.02418945 10.17317383 19.79931641 10.65478516 C22.82862797 12.50651654 25.90510966 14.26041544 29 16 C29 17.32 29 18.64 29 20 C22.59619967 19.07689707 17.74141893 15.51576515 12.3125 12.1875 C11.25482422 11.55779297 10.19714844 10.92808594 9.10742188 10.27929688 C8.09873047 9.66505859 7.09003906 9.05082031 6.05078125 8.41796875 C5.12950439 7.85875732 4.20822754 7.2995459 3.2590332 6.72338867 C0.93089797 4.94728291 0.03509351 3.70202611 -1 1 C-0.67 0.67 -0.34 0.34 0 0 Z " fill="#11363E" transform="translate(110,163)"/>
<path d="M0 0 C0.66 0.99 1.32 1.98 2 3 C-0.77622907 6.9863802 -2.66104432 9.66526108 -7.5 10.875 C-12.25321594 9.68669601 -14.46126241 7.11033705 -17 3 C-17 2.34 -17 1.68 -17 1 C-16.13375 1.185625 -15.2675 1.37125 -14.375 1.5625 C-11.04322532 2.16918045 -11.04322532 2.16918045 -7.9375 1.4375 C-4.59380283 0.93950255 -2.98125771 1.50937115 0 3 C0 2.01 0 1.02 0 0 Z " fill="#EBB713" transform="translate(168,63)"/>
<path d="M0 0 C3.2540165 0.16225261 6.50065593 0.38778893 9.75 0.625 C10.67039063 0.67011719 11.59078125 0.71523437 12.5390625 0.76171875 C19.24249411 1.29605025 19.24249411 1.29605025 21.53320312 3.42480469 C22.640625 5.0859375 22.640625 5.0859375 24 8 C23.67 8.66 23.34 9.32 23 10 C14.87543653 7.72053783 7.40102 5.07640831 0 1 C0 0.67 0 0.34 0 0 Z " fill="#EFF7FA" transform="translate(191,119)"/>
<path d="M0 0 C-1.04981007 3.06305342 -1.93649059 3.9615885 -4.7578125 5.66796875 C-10.91222428 8.44530771 -16.21551408 10.73394173 -23 11 C-19.82688029 7.42331643 -16.30186722 5.33171246 -12.0625 3.25 C-11.45470703 2.93417969 -10.84691406 2.61835937 -10.22070312 2.29296875 C-6.67283058 0.52477337 -3.96984031 -0.391711 0 0 Z " fill="#E9F0F3" transform="translate(145,101)"/>
<path d="M0 0 C9.39904777 2.81971433 19.59220221 6.21910269 26 14 C16.63679016 11.83925927 8.45348108 7.41552796 0 3 C0 2.01 0 1.02 0 0 Z " fill="#E3F1F6" transform="translate(176,100)"/>
<path d="M0 0 C0 4.14673024 -1.75777937 5.52949719 -4.375 8.6875 C-5.18710938 9.68136719 -5.99921875 10.67523438 -6.8359375 11.69921875 C-7.55007812 12.45847656 -8.26421875 13.21773437 -9 14 C-9.66 14 -10.32 14 -11 14 C-12.25664978 11.09399739 -13 9.20395416 -13 6 C-12.39671875 5.73445312 -11.7934375 5.46890625 -11.171875 5.1953125 C-10.37265625 4.84210938 -9.5734375 4.48890625 -8.75 4.125 C-7.96109375 3.77695313 -7.1721875 3.42890625 -6.359375 3.0703125 C-4.21131392 2.09586095 -2.10170798 1.07013571 0 0 Z " fill="#2ABCEF" transform="translate(117,140)"/>
<path d="M0 0 C4.02144292 1.37878043 6.73061335 3.31742634 10 6 C11.31138904 6.70885894 12.63777017 7.39456452 14 8 C13.34 9.98 12.68 11.96 12 14 C7.76014063 9.88862122 3.72154258 5.59026002 0 1 C0 0.67 0 0.34 0 0 Z " fill="#28C0F5" transform="translate(203,140)"/>
<path d="M0 0 C2.96052484 3.36423277 3.92289822 6.69159287 5 11 C2.36 11 -0.28 11 -3 11 C-2.44894091 7.0507432 -1.61064629 3.65079826 0 0 Z " fill="#ECB713" transform="translate(160,122)"/>
<path d="M0 0 C1.32 0.33 2.64 0.66 4 1 C1.97788781 4.3746508 -0.06814932 7.35669702 -3 10 C-6.46309732 10.76901871 -9.5153102 10.56792731 -13 10 C-11.47306036 6.94612072 -8.96382675 6.34037927 -5.9375 4.875 C-4.83277344 4.33617188 -3.72804687 3.79734375 -2.58984375 3.2421875 C-1.73519531 2.83226563 -0.88054687 2.42234375 0 2 C0 1.34 0 0.68 0 0 Z " fill="#36C3F5" transform="translate(133,117)"/>
<path d="M0 0 C4.29 0 8.58 0 13 0 C13.33 1.98 13.66 3.96 14 6 C9.38 4.35 4.76 2.7 0 1 C0 0.67 0 0.34 0 0 Z " fill="#20ADDE" transform="translate(203,128)"/>
<path d="M0 0 C0.66 1.32 1.32 2.64 2 4 C-0.68841859 6.25245881 -2.64641875 7.88213958 -6 9 C-4.68775452 5.06326356 -3.08089673 2.77280706 0 0 Z " fill="#31C0F2" transform="translate(145,101)"/>
<path d="M0 0 C1.62600941 0.0870005 3.25089678 0.1951781 4.875 0.3125 C5.77992188 0.37050781 6.68484375 0.42851563 7.6171875 0.48828125 C10 1 10 1 12 4 C8.7 3.67 5.4 3.34 2 3 C2 2.34 2 1.68 2 1 C1.34 0.67 0.68 0.34 0 0 Z " fill="#27AFDF" transform="translate(193,112)"/>
<path d="M0 0 C0.33 0.66 0.66 1.32 1 2 C2.98 2 4.96 2 7 2 C4.53721199 4.46278801 2.29323018 4.99771255 -1 6 C-0.67 4.02 -0.34 2.04 0 0 Z " fill="#2AB9EB" transform="translate(106,127)"/>
<path d="M0 0 C1.32 0.33 2.64 0.66 4 1 C1.03 4.96 1.03 4.96 -2 9 C-2.33 7.68 -2.66 6.36 -3 5 C-1.5625 2.8125 -1.5625 2.8125 0 1 C0 0.67 0 0.34 0 0 Z " fill="#3FBEEB" transform="translate(133,117)"/>
<path d="M0 0 C0 0.33 0 0.66 0 1 C-4.0527516 1.98248524 -7.83861737 2.08159574 -12 2 C-8.24587786 -1.75412214 -4.98458941 -1.01957511 0 0 Z " fill="#4BBDE5" transform="translate(124,154)"/>
<path d="M0 0 C2.97 0.33 5.94 0.66 9 1 C8.01 1.495 8.01 1.495 7 2 C7 2.66 7 3.32 7 4 C4.97954558 3.39816251 2.97888961 2.72693904 1 2 C0.67 1.34 0.34 0.68 0 0 Z " fill="#DDF0F7" transform="translate(191,119)"/>
</svg>
